<svg width="231" height="21" viewBox="0 0 231 21" fill="none" xmlns="http://www.w3.org/2000/svg">
<path d="M6.21862 17.4806V11.8637H0.48877V8.92821H6.21862V3.56529H9.46459V8.92821H15.1662V11.8637H9.46459V17.4806H6.21862Z" fill="white"/>
<path d="M27.6835 15.279C27.6835 12.654 29.3771 10.283 32.2561 10.283H48.0626C51.0263 10.283 52.6069 12.654 52.6069 15.279C52.6069 17.9323 51.0545 20.3032 48.0626 20.3032H32.2561C29.4053 20.3032 27.6835 17.9323 27.6835 15.279ZM27.8529 9.15402V1.30723H31.1553V2.35158H42.4739V1.30723H45.7763V9.15402H27.8529ZM31.0706 15.279C31.0706 16.2952 31.6633 17.3677 32.9617 17.3677H47.3005C48.5706 17.3677 49.1916 16.2952 49.1916 15.279C49.1916 14.2911 48.5706 13.2185 47.3005 13.2185H32.9617C31.6916 13.2185 31.0706 14.2911 31.0706 15.279ZM48.3448 9.15402V1.02497H51.6473V3.48062H54.4134V6.47256H51.6473V9.15402H48.3448ZM31.1553 5.11772V6.21853H42.4739V5.11772H31.1553Z" fill="white"/>
<path d="M55.9094 15.5895C55.9094 12.9645 57.9699 10.904 60.482 10.904H76.2884C78.8005 10.904 80.8328 12.9645 80.8328 15.5895C80.8328 18.2427 78.8005 20.3032 76.2884 20.3032H60.482C57.9699 20.3032 55.9094 18.2427 55.9094 15.5895ZM56.0787 10.029V1.30723H73.1554V10.029H56.0787ZM59.2965 15.5895C59.2965 16.6056 60.0868 17.3677 61.0182 17.3677H75.6957C76.6554 17.3677 77.4175 16.6056 77.4175 15.5895C77.4175 14.6016 76.6554 13.8395 75.6957 13.8395H61.0182C60.0868 13.8395 59.2965 14.6016 59.2965 15.5895ZM73.861 5.17417V2.52094H77.4175V1.02497H80.7199V10.029H77.4175V8.84353H73.861V6.1903H77.4175V5.17417H73.861ZM59.3811 4.24271V7.09353H69.8529V4.24271H59.3811Z" fill="white"/>
<path d="M84.4175 4.01691V1.30723H109.059V7.43224H87.7199V8.10966H109.059V10.8193H98.4175V11.6097H109.369V14.2347H84.1352V11.6097H95.1151V10.8193H84.4175V4.72255H105.756V4.01691H84.4175ZM84.4175 17.7347V15.025H109.059V20.3032H105.756V17.7347H84.4175Z" fill="white"/>
<path d="M121.572 4.18626V1.30723H139.89V4.18626H132.438C132.805 6.9524 135.939 6.67014 139.89 6.67014V9.49273C134.188 9.49273 131.93 8.98466 130.745 7.12175C129.531 8.98466 127.273 9.49273 121.572 9.49273V6.67014C125.495 6.67014 128.684 6.9524 129.023 4.18626H121.572ZM121.572 13.5572V10.6218H145.366V20.3032H142.064V13.5572H121.572ZM142.064 9.49273V1.02497H145.366V3.81933H148.132V6.81127H145.366V9.49273H142.064Z" fill="white"/>
<path d="M149.91 15.5895C149.91 12.9645 151.971 10.904 154.483 10.904H170.289C172.801 10.904 174.834 12.9645 174.834 15.5895C174.834 18.2427 172.801 20.3032 170.289 20.3032H154.483C151.971 20.3032 149.91 18.2427 149.91 15.5895ZM149.797 10.029V7.20643C153.975 7.20643 157.277 6.9524 157.277 3.62175V1.30723H160.608V3.62175C160.608 6.9524 163.91 7.20643 168.088 7.20643V10.029C162.358 10.029 160.128 9.12579 158.943 7.12175C157.729 9.12579 155.499 10.029 149.797 10.029ZM153.297 15.5895C153.297 16.6056 154.088 17.3677 155.019 17.3677H169.697C170.656 17.3677 171.418 16.6056 171.418 15.5895C171.418 14.6016 170.656 13.8395 169.697 13.8395H155.019C154.088 13.8395 153.297 14.6016 153.297 15.5895ZM166.874 5.99272V3.05723H171.136V1.02497H174.439V10.029H171.136V5.99272H166.874Z" fill="white"/>
<path d="M178.814 13.0492C178.814 9.32337 182.031 6.86772 186.181 6.86772C190.33 6.86772 193.604 9.32337 193.604 13.0492V14.2064C193.604 17.9323 190.33 20.4161 186.181 20.4161C182.031 20.4161 178.814 17.9323 178.814 14.2064V13.0492ZM198.233 20.5855V1.02497H201.535V6.75482H204.584V9.69031H201.535V20.5855H198.233ZM178.023 5.65401V2.71852H184.459V0.460449H187.761V2.71852H194.197V5.65401H178.023ZM182.144 13.0492V14.2064C182.144 16.2952 183.866 17.4524 186.181 17.4524C188.495 17.4524 190.273 16.2952 190.273 14.2064V13.0492C190.273 11.1298 188.495 9.83144 186.181 9.83144C183.866 9.83144 182.144 11.1298 182.144 13.0492Z" fill="white"/>
<path d="M206.277 4.38384V1.30723H222.027L218.358 20.3032H214.886L217.906 4.38384H206.277ZM227.588 20.5855V1.02497H230.89V20.5855H227.588Z" fill="white"/>
</svg>
