<svg width="266" height="21" viewBox="0 0 266 21" fill="none" xmlns="http://www.w3.org/2000/svg">
<path d="M0.683105 12.7841V9.87683H25.3243V16.1994H3.98553V17.018H25.3243V19.9252H0.683105V13.5744H22.0219V12.7841H0.683105ZM0.683105 8.9736V0.929233H3.98553V2.1994H14.4573V0.929233H17.7598V8.9736H0.683105ZM18.663 4.51392V1.86069H22.0219V0.646973H25.3243V9.00183H22.0219V8.18328H18.663V5.53005H22.0219V4.51392H18.663ZM3.98553 4.96553V6.03811H14.4573V4.96553H3.98553Z" fill="white"/>
<path d="M28.909 14.3365V11.401H39.6348V10.0462H42.909V11.401H53.5501V14.3365H43.0501C43.9534 16.9615 48.9776 16.9897 53.5501 16.9897V19.9252C47.9614 19.9252 43.3888 19.7841 41.2719 17.2156C39.1267 19.7841 34.4977 19.9252 28.909 19.9252V16.9897C33.4533 16.9897 38.5622 16.9615 39.4654 14.3365H28.909ZM28.909 9.42522V0.929233H32.2114V2.39698H44.0945V0.929233H47.3969V9.42522H28.909ZM50.2477 9.48167V0.646973H53.5501V9.48167H50.2477ZM32.2114 5.10666V6.48973H44.0945V5.10666H32.2114Z" fill="white"/>
<path d="M66.4582 19.9252V11.9091H89.9703V19.9252H66.4582ZM66.1759 10.7801V0.929233H84.0993V3.55424H69.4783V4.54214H84.0993V7.16715H69.4783V8.18328H84.0993V10.7801H66.1759ZM86.6679 10.7801V0.646973H89.9703V4.20343H92.7365V7.19537H89.9703V10.7801H86.6679ZM69.7606 14.8446V17.018H86.6679V14.8446H69.7606Z" fill="white"/>
<path d="M110.801 16.9333V19.9252C106.172 19.9252 103.745 17.7801 102.587 15.5502C101.43 17.7801 99.0308 19.9252 94.4018 19.9252V16.9333C98.7203 16.9333 100.95 13.9414 100.95 9.14296V0.929233H104.281V10.018C104.535 14.3083 106.736 16.9333 110.801 16.9333ZM114.611 20.2075V0.646973H117.914V6.37682H120.962V9.31231H117.914V20.2075H114.611Z" fill="white"/>
<path d="M131.951 12.3889V9.59457H155.463V16.0865H135.366V17.1309H155.463V19.9252H131.951V13.4615H152.048V12.3889H131.951ZM131.217 4.7115C131.217 2.45343 132.995 0.957458 135.169 0.957458H146.036C148.209 0.957458 149.987 2.45343 149.987 4.7115C149.987 6.96957 148.209 8.46554 146.036 8.46554H135.169C132.995 8.46554 131.217 6.96957 131.217 4.7115ZM152.161 8.46554V0.646973H155.463V2.90504H158.229V5.89698H155.463V8.46554H152.161ZM134.943 4.7115C134.943 5.33247 135.395 5.55827 136.016 5.55827H145.33C145.923 5.55827 146.403 5.33247 146.403 4.7115C146.403 4.09053 145.923 3.86472 145.33 3.86472H136.016C135.395 3.86472 134.943 4.09053 134.943 4.7115Z" fill="white"/>
<path d="M160.403 7.61876C160.403 3.41311 163.874 0.759876 168.108 0.759876C172.314 0.759876 175.814 3.41311 175.814 7.61876V13.2357C175.814 17.4696 172.314 20.0946 168.108 20.0946C163.874 20.0946 160.403 17.4696 160.403 13.2357V7.61876ZM163.677 7.39295V13.4333C163.677 15.8043 165.766 17.1309 168.108 17.1309C170.479 17.1309 172.54 15.8043 172.54 13.4333V7.39295C172.54 5.05021 170.479 3.69537 168.108 3.69537C165.766 3.69537 163.677 5.05021 163.677 7.39295ZM180.104 20.2075V0.646973H183.407V6.37682H186.455V9.31231H183.407V20.2075H180.104Z" fill="white"/>
<path d="M188.233 9.65102V0.929233H191.536V2.34052H209.572V0.929233H212.875V9.65102H202.233V16.9333H213.185V19.9252H187.951V16.9333H198.931V9.65102H188.233ZM191.536 5.27601V6.71553H209.572V5.27601H191.536Z" fill="white"/>
<path d="M216.375 4.00585V0.929233H232.125L228.455 19.9252H224.983L228.004 4.00585H216.375ZM237.685 20.2075V0.646973H240.987V20.2075H237.685Z" fill="white"/>
<path d="M265.976 11.5422L253.924 18.5139V15.0422L262.363 10.1591L253.924 5.24779V1.77601L265.976 8.77602V11.5422Z" fill="white"/>
</svg>
