<svg width="229" height="21" viewBox="0 0 229 21" fill="none" xmlns="http://www.w3.org/2000/svg">
<path d="M0.245117 15.291C0.245117 12.666 1.93867 10.295 4.81771 10.295H20.6242C23.5879 10.295 25.1686 12.666 25.1686 15.291C25.1686 17.9442 23.6161 20.3152 20.6242 20.3152H4.81771C1.96689 20.3152 0.245117 17.9442 0.245117 15.291ZM0.414472 9.16598V1.31919H3.7169V2.36355H15.0355V1.31919H18.3379V9.16598H0.414472ZM3.63222 15.291C3.63222 16.3071 4.22496 17.3797 5.52335 17.3797H19.8621C21.1323 17.3797 21.7532 16.3071 21.7532 15.291C21.7532 14.3031 21.1323 13.2305 19.8621 13.2305H5.52335C4.25319 13.2305 3.63222 14.3031 3.63222 15.291ZM20.9064 9.16598V1.03693H24.2089V3.49258H26.975V6.48452H24.2089V9.16598H20.9064ZM3.7169 5.12968V6.23049H15.0355V5.12968H3.7169Z" fill="white"/>
<path d="M28.471 15.6015C28.471 12.9765 30.5315 10.916 33.0436 10.916H48.8501C51.3622 10.916 53.3944 12.9765 53.3944 15.6015C53.3944 18.2547 51.3622 20.3152 48.8501 20.3152H33.0436C30.5315 20.3152 28.471 18.2547 28.471 15.6015ZM28.6403 10.041V1.31919H45.717V10.041H28.6403ZM31.8581 15.6015C31.8581 16.6176 32.6484 17.3797 33.5799 17.3797H48.2573C49.217 17.3797 49.9791 16.6176 49.9791 15.6015C49.9791 14.6136 49.217 13.8515 48.2573 13.8515H33.5799C32.6484 13.8515 31.8581 14.6136 31.8581 15.6015ZM46.4226 5.18613V2.5329H49.9791V1.03693H53.2815V10.041H49.9791V8.85549H46.4226V6.20226H49.9791V5.18613H46.4226ZM31.9428 4.25468V7.10549H42.4146V4.25468H31.9428Z" fill="white"/>
<path d="M56.9791 4.02887V1.31919H81.6203V7.4442H60.2815V8.12162H81.6203V10.8313H70.9791V11.6216H81.9308V14.2466H56.6968V11.6216H67.6767V10.8313H56.9791V4.73452H78.3178V4.02887H56.9791ZM56.9791 17.7466V15.037H81.6203V20.3152H78.3178V17.7466H56.9791Z" fill="white"/>
<path d="M94.1332 4.19823V1.31919H112.452V4.19823H105C105.367 6.96436 108.5 6.6821 112.452 6.6821V9.50469C106.75 9.50469 104.492 8.99662 103.307 7.13372C102.093 8.99662 99.8348 9.50469 94.1332 9.50469V6.6821C98.0565 6.6821 101.246 6.96436 101.585 4.19823H94.1332ZM94.1332 13.5692V10.6337H117.928V20.3152H114.625V13.5692H94.1332ZM114.625 9.50469V1.03693H117.928V3.83129H120.694V6.82323H117.928V9.50469H114.625Z" fill="white"/>
<path d="M122.472 15.6015C122.472 12.9765 124.532 10.916 127.045 10.916H142.851C145.363 10.916 147.395 12.9765 147.395 15.6015C147.395 18.2547 145.363 20.3152 142.851 20.3152H127.045C124.532 20.3152 122.472 18.2547 122.472 15.6015ZM122.359 10.041V7.21839C126.536 7.21839 129.839 6.96436 129.839 3.63371V1.31919H133.17V3.63371C133.17 6.96436 136.472 7.21839 140.649 7.21839V10.041C134.92 10.041 132.69 9.13775 131.504 7.13372C130.29 9.13775 128.061 10.041 122.359 10.041ZM125.859 15.6015C125.859 16.6176 126.649 17.3797 127.581 17.3797H142.258C143.218 17.3797 143.98 16.6176 143.98 15.6015C143.98 14.6136 143.218 13.8515 142.258 13.8515H127.581C126.649 13.8515 125.859 14.6136 125.859 15.6015ZM139.436 6.00468V3.06919H143.698V1.03693H147V10.041H143.698V6.00468H139.436Z" fill="white"/>
<path d="M151.375 13.0611C151.375 9.33533 154.593 6.87968 158.742 6.87968C162.891 6.87968 166.166 9.33533 166.166 13.0611V14.2184C166.166 17.9442 162.891 20.4281 158.742 20.4281C154.593 20.4281 151.375 17.9442 151.375 14.2184V13.0611ZM170.795 20.5975V1.03693H174.097V6.76678H177.145V9.70227H174.097V20.5975H170.795ZM150.585 5.66597V2.73048H157.02V0.472412H160.323V2.73048H166.758V5.66597H150.585ZM154.706 13.0611V14.2184C154.706 16.3071 156.428 17.4644 158.742 17.4644C161.057 17.4644 162.835 16.3071 162.835 14.2184V13.0611C162.835 11.1418 161.057 9.8434 158.742 9.8434C156.428 9.8434 154.706 11.1418 154.706 13.0611Z" fill="white"/>
<path d="M178.839 4.39581V1.31919H194.589L190.92 20.3152H187.448L190.468 4.39581H178.839ZM200.149 20.5975V1.03693H203.452V20.5975H200.149Z" fill="white"/>
<path d="M228.441 11.9321L216.388 18.9039V15.4321L224.828 10.549L216.388 5.63775V2.16596L228.441 9.16598V11.9321Z" fill="white"/>
</svg>
