<svg width="39" height="40" viewBox="0 0 39 40" fill="none" xmlns="http://www.w3.org/2000/svg">
<mask id="mask0_173_20" style="mask-type:alpha" maskUnits="userSpaceOnUse" x="0" y="0" width="39" height="40">
<rect y="0.648926" width="38.4973" height="38.4973" fill="#D9D9D9"/>
</mask>
<g mask="url(#mask0_173_20)">
<path d="M19.2483 21.6031L14.0412 26.8099C13.8089 27.0425 13.5272 27.1561 13.1962 27.1508C12.865 27.1457 12.5832 27.027 12.3509 26.7947C12.1186 26.5623 12.0024 26.278 12.0024 25.9417C12.0024 25.6054 12.1186 25.3211 12.3509 25.0887L17.5424 19.8972L12.3357 14.7302C12.1031 14.4979 11.9895 14.2135 11.9948 13.8772C11.9999 13.5412 12.1186 13.257 12.3509 13.0247C12.5832 12.7921 12.8675 12.6758 13.2039 12.6758C13.5402 12.6758 13.8245 12.7921 14.0568 13.0247L19.2483 18.2314L24.4154 13.0247C24.6477 12.7921 24.9294 12.6758 25.2603 12.6758C25.5916 12.6758 25.8733 12.7921 26.1057 13.0247C26.3546 13.2733 26.479 13.5616 26.479 13.8896C26.479 14.2177 26.3546 14.4979 26.1057 14.7302L20.9141 19.8972L26.1209 25.1044C26.3535 25.3367 26.4698 25.6184 26.4698 25.9493C26.4698 26.2806 26.3535 26.5623 26.1209 26.7947C25.8723 27.0436 25.5839 27.168 25.2559 27.168C24.9279 27.168 24.6477 27.0436 24.4154 26.7947L19.2483 21.6031Z" fill="white"/>
</g>
</svg>
