<svg width="966" height="240" viewBox="0 0 966 240" fill="none" xmlns="http://www.w3.org/2000/svg">
<path fill-rule="evenodd" clip-rule="evenodd" d="M0.964755 180C0.964755 180 84.0004 185.793 134.309 239.991V120.214C84.0004 174.412 0.837158 180 0.837158 180" fill="white"/>
<path d="M134.265 120.214H254.298V146.037H174.21V167.688H249.256V192.527H174.21V214.177H254.298V240H134.265V120.214Z" fill="white"/>
<path d="M86.9129 36.6442C86.2826 32.4322 84.0766 29.2043 80.3341 26.9212C76.5917 24.638 70.6038 23.5358 62.3705 23.5358C49.2917 23.5358 42.7523 27.2361 42.7523 34.5972C42.7523 38.2975 45.5493 40.62 51.1432 41.5647C53.6644 41.9977 57.6432 42.6275 63.0796 43.4542C68.516 44.2808 71.4705 44.7139 72.022 44.7139C88.3705 47.3513 97.9039 48.8865 100.661 49.2801C111.849 51.1696 120.24 54.5943 125.874 59.5542C131.507 64.5141 134.343 71.7572 134.343 81.3621C134.343 90.2191 131.901 97.344 126.977 102.776C122.092 108.209 116.064 112.145 108.934 114.546C101.804 116.987 95.0675 118.483 88.6857 119.034C82.3038 119.624 75.8038 119.9 69.1463 119.9C58.8251 119.9 49.725 119.349 41.8462 118.247C34.0069 117.144 27.0735 115.176 21.125 112.381C15.1765 109.586 10.4493 105.689 6.9826 100.69C3.51593 95.6907 1.50684 89.3531 0.955322 81.6376H45.5493C46.0614 86.2826 48.1493 89.7467 51.7341 92.0692C55.319 94.3917 61.7008 95.5333 70.8796 95.5333C73.519 95.5333 75.9614 95.3364 78.2463 94.9822C80.5311 94.6279 82.5796 93.998 84.5099 93.0927C86.4008 92.1873 87.8978 90.967 89.0008 89.4711C90.1038 87.9359 90.6554 86.0071 90.6554 83.6846C90.6554 80.7323 89.3554 78.5672 86.7948 77.1895C84.1948 75.8117 79.5463 74.5914 72.8099 73.5679L35.1887 67.8601C24.0008 66.1674 15.8462 62.6246 10.6856 57.1924C5.52502 51.7601 2.92502 44.6745 2.92502 35.9356C2.92502 31.7236 3.75229 27.551 5.36745 23.4571C6.9826 19.3632 9.93714 15.5448 14.2311 12.0021C18.4856 8.45926 24.5523 5.58566 32.3523 3.38126C40.1523 1.21622 49.922 0.114014 61.622 0.114014C82.8948 0.114014 99.2826 2.94825 110.707 8.65608C122.131 14.3639 128.434 23.6539 129.616 36.6442H86.9129Z" fill="white"/>
<path d="M194.377 119.983C194.377 86.8772 167.511 59.9913 134.341 59.9913C167.471 59.9913 194.377 33.1448 194.377 0C194.377 33.1054 221.244 59.9913 254.414 59.9913C221.283 59.9913 194.377 86.8378 194.377 119.983Z" fill="white"/>
<path d="M315.277 25.0499H307.662V22.0425H314.615C316.022 22.0425 316.629 21.5182 316.629 20.0007V18.1522C316.629 16.745 316.408 16.4139 315.332 15.9173L311 13.848C308.021 12.4408 307.414 11.7511 307.414 9.32308V6.70195C307.414 3.72214 308.959 2.0391 312.021 2.0391H319.498V5.0465H312.683C311.276 5.0465 310.697 5.57073 310.697 7.06063V8.44017C310.697 9.8749 310.918 10.2336 311.994 10.7302L316.325 12.7995C319.305 14.2067 319.912 14.8964 319.912 17.2968V20.3594C319.912 23.3668 318.367 25.0499 315.277 25.0499Z" fill="white"/>
<path d="M341.237 2.06669H354.894V5.15686H349.707V24.9395H346.424V5.15686H341.237V2.06669Z" fill="white"/>
<path d="M389.993 24.5532L386.793 25.2706L384.972 18.097H378.819L376.998 25.2706L373.77 24.5532L379.702 2.06669H384.089L389.993 24.5532ZM381.909 5.87422L379.536 15.1723H384.255L381.909 5.87422Z" fill="white"/>
<path d="M426.008 23.6703L423.221 25.2706L417.813 15.3379H414.696V24.9395H411.412V2.06669H420.241C423.414 2.06669 424.904 3.86009 424.904 7.19859V10.2888C424.904 13.0478 423.828 14.7585 421.235 15.2275L426.008 23.6703ZM419.8 5.12927H414.696V12.3305H419.524C421.069 12.3305 421.621 11.6407 421.621 10.1784V7.28136C421.621 5.84663 421.069 5.12927 419.8 5.12927Z" fill="white"/>
<path d="M475.902 14.7585V21.8493H484.621V24.9395H472.619V2.06669H484.428V5.12927H475.902V11.6683H483.793V14.7585H475.902Z" fill="white"/>
<path d="M518.854 1.70801L521.695 3.33587L515.819 13.4893L521.668 23.6151L518.826 25.2706L513.832 16.6071L508.838 25.2706L506.024 23.6151L511.873 13.4617L506.024 3.33587L508.866 1.70801L513.86 10.3439L518.854 1.70801Z" fill="white"/>
<path d="M552.327 2.06669C555.5 2.06669 556.99 3.86009 556.99 7.19859V10.9785C556.99 14.317 555.5 16.1104 552.327 16.1104H546.781V24.9395H543.498V2.06669H552.327ZM553.707 10.8682V7.28136C553.707 5.84663 553.155 5.12927 551.886 5.12927H546.781V13.0203H551.886C553.155 13.0203 553.707 12.3305 553.707 10.8682Z" fill="white"/>
<path d="M582.45 2.06669V21.8493H590.921V24.9395H579.167V2.06669H582.45Z" fill="white"/>
<path d="M621.261 25.0499H617.122C613.977 25.0499 612.459 23.2565 612.459 19.918V7.08822C612.459 3.74973 613.977 1.95633 617.122 1.95633H621.261C624.434 1.95633 625.924 3.74973 625.924 7.08822V19.918C625.924 23.2565 624.434 25.0499 621.261 25.0499ZM617.591 21.9597H620.819C622.088 21.9597 622.64 21.2699 622.64 19.8076V7.171C622.64 5.73627 622.088 5.01891 620.819 5.01891H617.591C616.322 5.01891 615.743 5.73627 615.743 7.171V19.8076C615.743 21.2699 616.322 21.9597 617.591 21.9597Z" fill="white"/>
<path d="M663.133 23.6703L660.346 25.2706L654.938 15.3379H651.821V24.9395H648.537V2.06669H657.366C660.539 2.06669 662.029 3.86009 662.029 7.19859V10.2888C662.029 13.0478 660.953 14.7585 658.36 15.2275L663.133 23.6703ZM656.925 5.12927H651.821V12.3305H656.649C658.194 12.3305 658.746 11.6407 658.746 10.1784V7.28136C658.746 5.84663 658.194 5.12927 656.925 5.12927Z" fill="white"/>
<path d="M700.046 24.5532L696.845 25.2706L695.024 18.097H688.871L687.05 25.2706L683.822 24.5532L689.754 2.06669H694.141L700.046 24.5532ZM691.961 5.87422L689.589 15.1723H694.307L691.961 5.87422Z" fill="white"/>
<path d="M718.935 2.06669H732.592V5.15686H727.405V24.9395H724.122V5.15686H718.935V2.06669Z" fill="white"/>
<path d="M757.695 24.9395H754.412V2.06669H757.695V24.9395Z" fill="white"/>
<path d="M789.123 25.0499H784.984C781.839 25.0499 780.322 23.2565 780.322 19.918V7.08822C780.322 3.74973 781.839 1.95633 784.984 1.95633H789.123C792.296 1.95633 793.786 3.74973 793.786 7.08822V19.918C793.786 23.2565 792.296 25.0499 789.123 25.0499ZM785.453 21.9597H788.682C789.951 21.9597 790.503 21.2699 790.503 19.8076V7.171C790.503 5.73627 789.951 5.01891 788.682 5.01891H785.453C784.184 5.01891 783.605 5.73627 783.605 7.171V19.8076C783.605 21.2699 784.184 21.9597 785.453 21.9597Z" fill="white"/>
<path d="M827.077 18.2625V2.06669H830.278V24.9395H826.994L819.6 8.71608V24.9395H816.4V2.06669H819.683L827.077 18.2625Z" fill="white"/>
<path d="M325.371 69.5303H320.957V71.6548H307.768V60.2046H311.052V62.9085H317.701V60.2046H320.957V62.136H325.371V59.7908H328.655V71.9307H325.371V69.5303ZM325.371 66.992V64.6744H320.957V66.992H325.371ZM311.052 68.9785H317.701V65.64H311.052V68.9785ZM312.1 79.9045V81.3116H329.013V83.9052H308.817V77.7248L325.399 77.2006V75.8762H308.817V73.3655H328.655V79.4079L312.1 79.9045Z" fill="white"/>
<path d="M492.571 59.7908H495.854V73.7241H492.571V59.7908ZM485.149 60.2046H488.432V72.4826H474.968V60.2046H478.251V63.2948H485.149V60.2046ZM478.251 69.6407H485.149V66.1643H478.251V69.6407ZM487.853 78.1111L496.627 81.7255L495.026 84.2639L485.976 80.346L476.927 84.2639L475.326 81.7255L484.128 78.1111H475.989V75.3796H484.349V73.4482H487.632V75.3796H495.964V78.1111H487.853Z" fill="white"/>
<path d="M662.391 64.8951H665.288V68.068H662.391V73.8621H659.108V59.7908H662.391V64.8951ZM645.23 70.9375L656.514 70.3029L656.68 73.0068L641.946 73.8345V60.2046H655.273V62.9085H645.23V65.4193H654.776V68.0128H645.23V70.9375ZM662.391 83.9052H642.885V75.2968H662.391V83.9052ZM659.108 78.0283H646.168V81.0909H659.108V78.0283Z" fill="white"/>
<path d="M829.591 69.3372H832.488V72.5102H829.591V83.9052H826.307V59.7908H829.591V69.3372ZM808.07 82.2773L813.671 60.2046H817.975L823.576 82.2773L820.348 83.105L815.823 64.8951L811.298 83.105L808.07 82.2773Z" fill="white"/>
<path d="M311.206 125.972H309.166L309.646 121.508H311.206V125.972Z" fill="white"/>
<path d="M330.521 130.844H326.057V132.908H314.705V123.188H316.337V126.068H324.425V123.188H326.057V125.108H330.521V122.708H332.153V133.148H330.521V130.844ZM330.521 129.332V126.62H326.057V129.332H330.521ZM316.337 131.348H324.425V127.628H316.337V131.348ZM317.249 140.036V141.908H332.513V143.444H315.617V138.596L330.521 138.044V136.244H315.617V134.708H332.153V139.484L317.249 140.036Z" fill="white"/>
<path d="M352.96 122.708H354.592V134.708H352.96V122.708ZM347.104 123.188H348.736V133.628H337.144V123.188H338.776V126.38H347.104V123.188ZM338.776 132.068H347.104V127.94H338.776V132.068ZM347.416 138.068L355.216 142.388L354.28 143.684L346.36 139.22L338.44 143.684L337.504 142.388L345.304 138.068H338.008V136.508H345.544V134.588H347.176V136.508H354.712V138.068H347.416Z" fill="white"/>
<path d="M380.801 127.748H383.369V129.308H380.801V134.828H379.169V122.708H380.801V127.748ZM365.369 133.124L376.217 132.524L376.313 134.084L363.737 134.78V123.188H375.017V124.748H365.369V127.916H374.657V129.476H365.369V133.124ZM380.801 143.444H364.553V136.388H380.801V143.444ZM379.169 137.924H366.185V141.884H379.169V137.924Z" fill="white"/>
<path d="M403.24 131.612H405.808V133.172H403.24V143.444H401.608V122.708H403.24V131.612ZM385.36 142.316L390.64 123.188H393.088L398.368 142.316L396.808 142.796L391.864 124.844L386.92 142.796L385.36 142.316Z" fill="white"/>
<path d="M407.487 121.748H409.527L409.047 126.212H407.487V121.748Z" fill="white"/>
<path d="M431.122 130.916H413.267V123.188H414.898V129.356H431.122V130.916ZM432.131 135.236H412.258V133.676H432.131V135.236ZM431.363 143.444H413.507V137.372H415.138V141.884H431.363V143.444Z" fill="white"/>
<path d="M455.987 130.844H451.523V132.908H440.171V123.188H441.803V126.068H449.891V123.188H451.523V125.108H455.987V122.708H457.619V133.148H455.987V130.844ZM455.987 129.332V126.62H451.523V129.332H455.987ZM441.803 131.348H449.891V127.628H441.803V131.348ZM442.715 140.036V141.908H457.979V143.444H441.083V138.596L455.987 138.044V136.244H441.083V134.708H457.619V139.484L442.715 140.036Z" fill="white"/>
<path d="M474.226 124.988V126.548H469.162L474.082 142.316L472.546 142.82L467.938 128.012L463.33 142.82L461.794 142.316L466.714 126.548H461.65V124.988H467.122V122.348H468.754V124.988H474.226ZM478.426 131.612V122.708H480.058V143.444H478.426V133.172H473.17V131.612H478.426Z" fill="white"/>
<path d="M500.865 127.772V122.708H502.497V134.828H500.865V129.332H496.737V127.772H500.865ZM486.681 133.124L496.161 132.596L496.257 134.156L485.049 134.78V128.468L493.569 127.556V124.748H485.049V123.188H495.201V128.9L486.681 129.836V133.124ZM502.497 143.444H485.961V136.388H502.497V143.444ZM500.865 137.924H487.593V141.884H500.865V137.924Z" fill="white"/>
<path d="M527.649 122.708H529.281V134.708H527.649V122.708ZM521.793 123.188H523.425V133.628H511.833V123.188H513.465V126.38H521.793V123.188ZM513.465 132.068H521.793V127.94H513.465V132.068ZM522.105 138.068L529.905 142.388L528.969 143.684L521.049 139.22L513.129 143.684L512.193 142.388L519.993 138.068H512.697V136.508H520.233V134.588H521.865V136.508H529.401V138.068H522.105Z" fill="white"/>
<path d="M551.144 131.612H553.712V133.172H551.144V143.444H549.512V122.708H551.144V131.612ZM535.712 123.188V141.02L546.08 140.444L546.176 142.004L534.08 142.676V123.188H535.712Z" fill="white"/>
<path d="M574.448 130.916H556.591V123.188H558.223V129.356H574.448V130.916ZM575.456 135.236H555.583V133.676H575.456V135.236ZM574.688 143.444H556.831V137.372H558.464V141.884H574.688V143.444Z" fill="white"/>
<path d="M599.936 131.612V122.708H601.568V143.444H599.936V133.172H596.384V143.084H594.776V122.756H596.384V131.612H599.936ZM590.168 124.748H583.04V123.188H591.92V124.604L585.68 143.18L584.072 142.796L590.168 124.748Z" fill="white"/>
<path d="M617.191 134.084L615.847 134.924L611.191 127.028L606.535 134.924L605.191 134.084L609.967 125.9H604.975V124.34H610.375V122.348H612.007V124.34H617.407V125.9H612.415L617.191 134.084ZM621.751 128.492V122.708H623.383V134.948H621.751V130.052H617.215V128.492H621.751ZM621.751 138.068H606.847V136.508H623.383V143.444H621.751V138.068Z" fill="white"/>
<path d="M645.246 131.612H647.814V133.172H645.246V143.444H643.614V122.708H645.246V131.612ZM632.646 124.748H627.222V123.188H640.518V124.748H635.094L640.374 142.292L638.838 142.82L633.87 126.308L628.902 142.82L627.366 142.292L632.646 124.748Z" fill="white"/>
<path d="M668.597 129.716H650.693V123.188H668.309V124.724H652.325V128.18H668.597V129.716ZM669.557 133.268H649.685V131.708H669.557V133.268ZM668.789 143.444H650.693V138.86L666.917 138.308V136.82H650.693V135.284H668.549V139.748L652.325 140.3V141.908H668.789V143.444Z" fill="white"/>
<path d="M690.7 143.444H689.068V122.708H690.7V143.444ZM681.292 136.796H677.644C675.004 136.796 673.42 135.356 673.42 132.812V127.172C673.42 124.628 675.004 123.188 677.644 123.188H681.292C683.932 123.188 685.516 124.628 685.516 127.172V132.812C685.516 135.356 683.932 136.796 681.292 136.796ZM677.644 135.236H681.292C683.116 135.236 683.884 134.396 683.884 132.404V127.58C683.884 125.588 683.116 124.748 681.292 124.748H677.644C675.82 124.748 675.052 125.588 675.052 127.58V132.404C675.052 134.396 675.82 135.236 677.644 135.236ZM686.932 141.86L672.508 142.7L672.388 141.14L686.812 140.348L686.932 141.86Z" fill="white"/>
<path d="M711.269 133.34L709.973 134.204L705.293 126.932L700.613 134.204L699.316 133.34L704.069 125.828H699.077V124.268H704.477V122.348H706.109V124.268H711.509V125.828H706.517L711.269 133.34ZM711.316 129.644V128.084H715.853V122.708H717.484V134.108H715.853V129.644H711.316ZM704.789 135.668H713.669C716.117 135.668 717.677 136.964 717.677 139.172V140.06C717.677 142.268 716.117 143.564 713.669 143.564H704.789C702.341 143.564 700.781 142.268 700.781 140.06V139.172C700.781 136.964 702.341 135.668 704.789 135.668ZM716.044 140.132V139.1C716.044 137.924 715.301 137.228 713.669 137.228H704.789C703.157 137.228 702.413 137.924 702.413 139.1V140.132C702.413 141.308 703.157 142.004 704.789 142.004H713.669C715.301 142.004 716.044 141.308 716.044 140.132Z" fill="white"/>
<path d="M731.284 126.836L723.124 132.236L722.14 130.964L730.252 125.564H722.308V124.028H730.468V122.228H732.1V124.028H740.26V125.564H732.316L740.428 130.964L739.444 132.236L731.284 126.836ZM721.348 135.5V133.94H741.22V135.5H732.58V139.124H730.948V135.5H721.348ZM722.596 137.852H724.228V141.884H740.452V143.444H722.596V137.852Z" fill="white"/>
<path d="M759.219 129.716H748.227C746.139 129.716 744.675 128.972 744.675 127.052V125.732C744.675 123.812 746.139 123.068 748.227 123.068H759.219C761.307 123.068 762.771 123.812 762.771 125.732V127.052C762.771 128.972 761.307 129.716 759.219 129.716ZM748.227 128.18H759.219C760.491 128.18 761.139 127.772 761.139 126.764V126.02C761.139 125.012 760.491 124.604 759.219 124.604H748.227C746.955 124.604 746.307 125.012 746.307 126.02V126.764C746.307 127.772 746.955 128.18 748.227 128.18ZM763.659 133.268H743.787V131.708H763.659V133.268ZM762.891 143.444H744.795V138.86L761.019 138.308V136.82H744.795V135.284H762.651V139.748L746.427 140.3V141.908H762.891V143.444Z" fill="white"/>
<path d="M787.515 130.844H783.051V132.908H771.699V123.188H773.331V126.068H781.419V123.188H783.051V125.108H787.515V122.708H789.147V133.148H787.515V130.844ZM787.515 129.332V126.62H783.051V129.332H787.515ZM773.331 131.348H781.419V127.628H773.331V131.348ZM774.243 140.036V141.908H789.507V143.444H772.611V138.596L787.515 138.044V136.244H772.611V134.708H789.147V139.484L774.243 140.036Z" fill="white"/>
<path d="M809.954 122.708H811.586V134.708H809.954V122.708ZM804.098 123.188H805.73V133.628H794.138V123.188H795.77V126.38H804.098V123.188ZM795.77 132.068H804.098V127.94H795.77V132.068ZM804.41 138.068L812.21 142.388L811.274 143.684L803.354 139.22L795.434 143.684L794.498 142.388L802.298 138.068H795.002V136.508H802.538V134.588H804.17V136.508H811.706V138.068H804.41Z" fill="white"/>
<path d="M833.017 143.444V122.708H834.649V143.444H833.017ZM825.289 131.612H828.337V122.756H829.945V143.084H828.337V133.172H825.289V138.62C825.289 141.284 824.065 142.724 821.425 142.724H819.793C817.273 142.724 815.929 141.284 815.929 138.62V127.052C815.929 124.388 817.273 122.948 819.793 122.948H821.425C824.065 122.948 825.289 124.388 825.289 127.052V131.612ZM823.657 138.212V127.46C823.657 125.348 823.249 124.508 821.425 124.508H819.793C818.089 124.508 817.561 125.348 817.561 127.46V138.212C817.561 140.324 818.089 141.164 819.793 141.164H821.425C823.249 141.164 823.657 140.324 823.657 138.212Z" fill="white"/>
<path d="M859.178 122.708H860.81V135.74H859.178V122.708ZM853.322 123.188H854.953V134.708H843.362V123.188H844.994V126.86H853.322V123.188ZM844.994 133.148H853.322V128.42H844.994V133.148ZM854.018 135.98L861.866 142.436L860.833 143.684L853.01 137.252L845.186 143.684L844.154 142.436L852.002 135.98H854.018Z" fill="white"/>
<path d="M882.241 131.612V122.708H883.873V143.444H882.241V133.172H878.689V143.084H877.081V122.756H878.689V131.612H882.241ZM866.905 124.748V141.02L875.065 140.564L875.161 142.124L865.273 142.676V123.188H874.585V124.748H866.905Z" fill="white"/>
<path d="M904.056 131.612V122.708H905.688V143.444H904.056V133.172H899.712V138.62C899.712 141.284 898.2 142.724 895.56 142.724H892.272C889.656 142.724 888.12 141.284 888.12 138.62V127.052C888.12 124.388 889.656 122.948 892.272 122.948H895.56C898.2 122.948 899.712 124.388 899.712 127.052V131.612H904.056ZM898.08 138.212V127.46C898.08 125.348 897.384 124.508 895.56 124.508H892.272C890.472 124.508 889.752 125.348 889.752 127.46V138.212C889.752 140.324 890.472 141.164 892.272 141.164H895.56C897.384 141.164 898.08 140.324 898.08 138.212Z" fill="white"/>
<path d="M926.495 131.372V122.708H928.127V143.444H926.495V132.932H921.719V131.372H926.495ZM909.863 142.364L914.783 123.188H917.231L922.151 142.364L920.591 142.796L916.007 124.916L911.423 142.796L909.863 142.364Z" fill="white"/>
<path d="M933.502 145.292H931.942V140.828H933.982L933.502 145.292Z" fill="white"/>
<path d="M321.406 160.812V159.252H325.942V153.708H327.574V169.212H325.942V160.812H321.406ZM321.286 165.756L319.918 166.524L315.334 156.948L310.75 166.524L309.382 165.756L314.11 155.748H309.166V154.188H321.502V155.748H316.558L321.286 165.756ZM313.078 168.108V172.884H327.934V174.444H311.446V168.108H313.078Z" fill="white"/>
<path d="M348.381 174.444V153.708H350.013V174.444H348.381ZM331.749 173.292L337.269 154.188H339.717L345.237 173.292L343.677 173.796L338.493 155.796L333.309 173.796L331.749 173.292Z" fill="white"/>
<path d="M372.788 161.556H354.884V157.476L371.108 156.924V155.7H354.884V154.188H372.74V158.316L356.516 158.868V160.068H372.788V161.556ZM373.748 165.06H353.876V163.5H373.748V165.06ZM372.98 174.444H354.884V170.268L371.108 169.716V168.516H354.884V167.004H372.74V171.108L356.516 171.684V172.932H372.98V174.444Z" fill="white"/>
<path d="M398.66 153.708V160.404H401.228V161.964H398.66V169.284H397.028V153.708H398.66ZM393.548 162.54H391.916V155.772H381.668V154.212H393.548V162.54ZM387.452 165.012L394.868 164.652L394.988 166.164L380.804 166.86L380.684 165.324L385.82 165.084V159.324H387.452V165.012ZM383.3 168.828H384.932V172.884H399.188V174.444H383.3V168.828Z" fill="white"/>
<path d="M421.099 158.748H423.667V160.308H421.099V165.828H419.467V153.708H421.099V158.748ZM405.667 164.124L416.515 163.524L416.611 165.084L404.035 165.78V159.468L413.563 158.532V155.748H404.035V154.188H415.195V159.9L405.667 160.86V164.124ZM421.099 174.444H404.851V167.388H421.099V174.444ZM419.467 168.924H406.483V172.884H419.467V168.924Z" fill="white"/>
<path d="M431.25 153.348H432.882V155.988H438.642V157.548H425.466V155.988H431.25V153.348ZM443.538 162.612H446.106V164.172H443.538V174.444H441.906V153.708H443.538V162.612ZM430.602 160.068H433.506C436.122 160.068 437.634 161.508 437.634 164.172V169.74C437.634 172.404 436.122 173.844 433.506 173.844H430.602C427.986 173.844 426.474 172.404 426.474 169.74V164.172C426.474 161.508 427.986 160.068 430.602 160.068ZM436.002 169.332V164.58C436.002 162.468 435.306 161.628 433.506 161.628H430.602C428.802 161.628 428.106 162.468 428.106 164.58V169.332C428.106 171.444 428.802 172.284 430.602 172.284H433.506C435.306 172.284 436.002 171.444 436.002 169.332Z" fill="white"/>
<path d="M466.841 161.916H448.985V154.188H450.617V160.356H466.841V161.916ZM467.849 166.236H447.977V164.676H467.849V166.236ZM467.081 174.444H449.225V168.372H450.857V172.884H467.081V174.444Z" fill="white"/>
<path d="M491.706 158.628V153.708H493.338V174.444H491.706V168.108H487.362V169.62C487.362 172.284 485.85 173.724 483.21 173.724H479.922C477.306 173.724 475.77 172.284 475.77 169.62V158.052C475.77 155.388 477.306 153.948 479.922 153.948H483.21C485.85 153.948 487.362 155.388 487.362 158.052V158.628H491.706ZM485.73 169.212V158.46C485.73 156.348 485.034 155.508 483.21 155.508H479.922C478.122 155.508 477.402 156.348 477.402 158.46V169.212C477.402 171.324 478.122 172.164 479.922 172.164H483.21C485.034 172.164 485.73 171.324 485.73 169.212ZM487.362 160.188V166.548H491.706V160.188H487.362Z" fill="white"/>
<path d="M514.145 162.612V153.708H515.777V174.444H514.145V164.172H510.017V162.612H514.145ZM499.961 164.556V172.02L509.801 171.468L509.897 173.028L498.329 173.676V163.188L506.849 162.252V155.748H498.329V154.188H508.481V163.62L499.961 164.556Z" fill="white"/>
<path d="M536.872 153.948H538.504V162.42H520.648V153.948H522.28V156.372H536.872V153.948ZM522.28 160.908H536.872V157.884H522.28V160.908ZM519.64 166.5V164.94H539.512V166.5H530.872V169.86H529.24V166.5H519.64ZM520.888 168.852H522.52V172.884H538.744V174.444H520.888V168.852Z" fill="white"/>
<path d="M560.991 160.716H543.087V154.188H560.703V155.724H544.719V159.18H560.991V160.716ZM561.951 164.268H542.079V162.708H561.951V164.268ZM561.183 174.444H543.087V169.86L559.311 169.308V167.82H543.087V166.284H560.943V170.748L544.719 171.3V172.908H561.183V174.444Z" fill="white"/>
<path d="M583.094 174.444H581.462V153.708H583.094V174.444ZM573.158 173.724H569.726C567.086 173.724 565.526 172.284 565.526 169.62V158.052C565.526 155.388 567.086 153.948 569.726 153.948H573.158C575.798 153.948 577.358 155.388 577.358 158.052V169.62C577.358 172.284 575.798 173.724 573.158 173.724ZM569.726 172.164H573.158C574.982 172.164 575.726 171.324 575.726 169.212V158.46C575.726 156.348 574.982 155.508 573.158 155.508H569.726C567.902 155.508 567.158 156.348 567.158 158.46V169.212C567.158 171.324 567.902 172.164 569.726 172.164Z" fill="white"/>
<path d="M608.246 161.844H603.782V163.908H592.43V154.188H594.062V157.068H602.15V154.188H603.782V156.108H608.246V153.708H609.878V164.148H608.246V161.844ZM608.246 160.332V157.62H603.782V160.332H608.246ZM594.062 162.348H602.15V158.628H594.062V162.348ZM594.974 171.036V172.908H610.238V174.444H593.342V169.596L608.246 169.044V167.244H593.342V165.708H609.878V170.484L594.974 171.036Z" fill="white"/>
<path d="M630.685 153.708H632.317V165.708H630.685V153.708ZM624.829 154.188H626.461V164.628H614.869V154.188H616.501V157.38H624.829V154.188ZM616.501 163.068H624.829V158.94H616.501V163.068ZM625.141 169.068L632.941 173.388L632.005 174.684L624.085 170.22L616.165 174.684L615.229 173.388L623.029 169.068H615.733V167.508H623.269V165.588H624.901V167.508H632.437V169.068H625.141Z" fill="white"/>
<path d="M651.612 160.716H640.62C638.532 160.716 637.068 159.972 637.068 158.052V156.732C637.068 154.812 638.532 154.068 640.62 154.068H651.612C653.7 154.068 655.164 154.812 655.164 156.732V158.052C655.164 159.972 653.7 160.716 651.612 160.716ZM640.62 159.18H651.612C652.884 159.18 653.532 158.772 653.532 157.764V157.02C653.532 156.012 652.884 155.604 651.612 155.604H640.62C639.348 155.604 638.7 156.012 638.7 157.02V157.764C638.7 158.772 639.348 159.18 640.62 159.18ZM656.052 164.268H636.18V162.708H656.052V164.268ZM655.284 174.444H637.188V169.86L653.412 169.308V167.82H637.188V166.284H655.044V170.748L638.82 171.3V172.908H655.284V174.444Z" fill="white"/>
<path d="M680.965 158.748H683.533V160.308H680.965V165.828H679.333V153.708H680.965V158.748ZM665.533 164.124L676.381 163.524L676.477 165.084L663.901 165.78V154.188H675.181V155.748H665.533V158.916H674.821V160.476H665.533V164.124ZM680.965 174.444H664.717V167.388H680.965V174.444ZM679.333 168.924H666.349V172.884H679.333V168.924Z" fill="white"/>
<path d="M703.404 162.612H705.972V164.172H703.404V174.444H701.772V153.708H703.404V162.612ZM685.524 173.316L690.804 154.188H693.252L698.532 173.316L696.972 173.796L692.028 155.844L687.084 173.796L685.524 173.316Z" fill="white"/>
<path d="M713.555 153.348H715.187V155.988H720.947V157.548H707.771V155.988H713.555V153.348ZM725.843 162.612H728.411V164.172H725.843V174.444H724.211V153.708H725.843V162.612ZM712.907 160.068H715.811C718.427 160.068 719.939 161.508 719.939 164.172V169.74C719.939 172.404 718.427 173.844 715.811 173.844H712.907C710.291 173.844 708.779 172.404 708.779 169.74V164.172C708.779 161.508 710.291 160.068 712.907 160.068ZM718.307 169.332V164.58C718.307 162.468 717.611 161.628 715.811 161.628H712.907C711.107 161.628 710.411 162.468 710.411 164.58V169.332C710.411 171.444 711.107 172.284 712.907 172.284H715.811C717.611 172.284 718.307 171.444 718.307 169.332Z" fill="white"/>
<path d="M749.146 161.916H731.29V154.188H732.922V160.356H749.146V161.916ZM750.154 166.236H730.282V164.676H750.154V166.236ZM749.386 174.444H731.53V168.372H733.162V172.884H749.386V174.444Z" fill="white"/>
<path d="M774.634 162.612V153.708H776.266V174.444H774.634V164.172H771.082V174.084H769.474V153.756H771.082V162.612H774.634ZM759.298 154.188V172.02L767.458 171.564L767.554 173.124L757.666 173.676V154.188H759.298Z" fill="white"/>
<path d="M794.577 161.436V163.908H799.377V165.468H779.505V163.908H784.305V161.436H784.065C781.881 161.436 780.393 160.62 780.393 158.58V156.924C780.393 154.884 781.881 154.068 784.065 154.068H794.817C797.001 154.068 798.489 154.884 798.489 156.924V158.58C798.489 160.62 797.001 161.436 794.817 161.436H794.577ZM782.025 157.212V158.292C782.025 159.444 782.697 159.9 784.065 159.9H794.817C796.185 159.9 796.857 159.444 796.857 158.292V157.212C796.857 156.06 796.185 155.604 794.817 155.604H784.065C782.697 155.604 782.025 156.06 782.025 157.212ZM792.945 161.436H785.937V163.908H792.945V161.436ZM784.305 167.628H794.601C796.953 167.628 798.489 168.78 798.489 170.82V171.372C798.489 173.412 796.953 174.564 794.601 174.564H784.305C781.929 174.564 780.393 173.412 780.393 171.372V170.82C780.393 168.78 781.929 167.628 784.305 167.628ZM796.857 171.468V170.724C796.857 169.74 796.137 169.164 794.601 169.164H784.305C782.745 169.164 782.025 169.74 782.025 170.724V171.468C782.025 172.452 782.745 173.004 784.305 173.004H794.601C796.137 173.004 796.857 172.452 796.857 171.468Z" fill="white"/>
<path d="M820.52 174.444H818.888V153.708H820.52V174.444ZM811.112 167.796H807.464C804.824 167.796 803.24 166.356 803.24 163.812V158.172C803.24 155.628 804.824 154.188 807.464 154.188H811.112C813.752 154.188 815.336 155.628 815.336 158.172V163.812C815.336 166.356 813.752 167.796 811.112 167.796ZM807.464 166.236H811.112C812.936 166.236 813.704 165.396 813.704 163.404V158.58C813.704 156.588 812.936 155.748 811.112 155.748H807.464C805.64 155.748 804.872 156.588 804.872 158.58V163.404C804.872 165.396 805.64 166.236 807.464 166.236ZM816.752 172.86L802.328 173.7L802.208 172.14L816.632 171.348L816.752 172.86Z" fill="white"/>
<path d="M841.137 160.812V159.252H845.673V153.708H847.305V169.212H845.673V160.812H841.137ZM841.017 165.756L839.649 166.524L835.065 156.948L830.481 166.524L829.113 165.756L833.841 155.748H828.897V154.188H841.233V155.748H836.289L841.017 165.756ZM832.809 168.108V172.884H847.665V174.444H831.177V168.108H832.809Z" fill="white"/>
<path d="M868.112 174.444V153.708H869.744V174.444H868.112ZM851.48 173.292L857 154.188H859.448L864.968 173.292L863.408 173.796L858.224 155.796L853.04 173.796L851.48 173.292Z" fill="white"/>
<path d="M881.839 155.748H887.383V157.308H874.663V155.748H880.207V153.492H881.839V155.748ZM890.551 174.444V153.708H892.183V174.444H890.551ZM881.839 168.42V171.708L888.295 171.348L888.415 172.86L873.991 173.7L873.871 172.14L880.207 171.804V168.42H879.343C876.799 168.42 875.215 167.1 875.215 164.868V162.564C875.215 160.332 876.799 159.012 879.343 159.012H882.703C885.247 159.012 886.831 160.332 886.831 162.564V164.868C886.831 167.1 885.247 168.42 882.703 168.42H881.839ZM876.847 162.972V164.46C876.847 166.14 877.615 166.86 879.343 166.86H882.703C884.431 166.86 885.199 166.14 885.199 164.46V162.972C885.199 161.292 884.431 160.572 882.703 160.572H879.343C877.615 160.572 876.847 161.292 876.847 162.972Z" fill="white"/>
<path d="M914.622 164.652H912.99V153.708H914.622V164.652ZM904.902 164.412H901.038C898.518 164.412 897.054 163.068 897.054 160.908V157.452C897.054 155.292 898.518 153.948 901.038 153.948H904.902C907.446 153.948 908.886 155.292 908.886 157.452V160.908C908.886 163.068 907.446 164.412 904.902 164.412ZM901.038 162.852H904.902C906.63 162.852 907.254 162.108 907.254 160.5V157.86C907.254 156.252 906.63 155.508 904.902 155.508H901.038C899.334 155.508 898.686 156.252 898.686 157.86V160.5C898.686 162.108 899.334 162.852 901.038 162.852ZM914.622 174.444H898.086V166.212H899.718V168.66H912.99V166.212H914.622V174.444ZM899.718 170.22V172.884H912.99V170.22H899.718Z" fill="white"/>
<path d="M937.061 174.444H935.429V153.708H937.061V174.444ZM932.381 172.98L919.613 173.676V154.188H921.245V172.02L932.285 171.42L932.381 172.98Z" fill="white"/>
<path d="M958.924 162.612H961.492V164.172H958.924V174.444H957.292V153.708H958.924V162.612ZM943.492 155.748V172.02L954.268 171.42L954.364 172.98L941.86 173.676V154.188H953.14V155.748H943.492Z" fill="white"/>
<path d="M964.851 174.132H964.155C963.507 174.132 963.267 173.772 963.267 173.1V172.74C963.267 172.068 963.507 171.708 964.155 171.708H964.851C965.499 171.708 965.739 172.068 965.739 172.74V173.1C965.739 173.772 965.499 174.132 964.851 174.132Z" fill="white"/>
<path d="M319.75 228.14V233.924H328.87V235.484H308.998V233.924H318.118V228.14H310.006V216.188H327.862V228.14H319.75ZM326.23 217.748H311.638V226.58H326.23V217.748Z" fill="white"/>
<path d="M350.349 224.42H332.445V216.188H350.061V217.724H334.077V222.884H350.349V224.42ZM351.309 228.548H331.437V226.988H351.309V228.548ZM350.541 236.444H332.685V230.612H334.317V234.884H350.541V236.444Z" fill="white"/>
<path d="M376.221 220.748H378.789V222.308H376.221V227.828H374.589V215.708H376.221V220.748ZM360.789 226.124L371.637 225.524L371.733 227.084L359.157 227.78V216.188H370.437V217.748H360.789V220.916H370.077V222.476H360.789V226.124ZM376.221 236.444H359.973V229.388H376.221V236.444ZM374.589 230.924H361.605V234.884H374.589V230.924Z" fill="white"/>
<path d="M398.66 224.612H401.228V226.172H398.66V236.444H397.028V215.708H398.66V224.612ZM380.78 235.316L386.06 216.188H388.508L393.788 235.316L392.228 235.796L387.284 217.844L382.34 235.796L380.78 235.316Z" fill="white"/>
<path d="M422.011 223.556H404.107V219.476L420.331 218.924V217.7H404.107V216.188H421.963V220.316L405.739 220.868V222.068H422.011V223.556ZM422.971 227.06H403.099V225.5H422.971V227.06ZM422.203 236.444H404.107V232.268L420.331 231.716V230.516H404.107V229.004H421.963V233.108L405.739 233.684V234.932H422.203V236.444Z" fill="white"/>
<path d="M438.788 222.116H437.156V217.748H430.651V216.188H438.788V222.116ZM448.988 222.116H447.355V217.748H440.611V216.188H448.988V222.116ZM429.883 225.62V224.06H449.755V225.62H429.883ZM448.699 232.724H432.523V234.884H448.988V236.444H430.892V227.564H448.747V229.1H432.523V231.236H448.699V232.724Z" fill="white"/>
<path d="M474.668 215.708V220.628H477.236V222.188H474.668V227.108H473.036V215.708H474.668ZM457.604 216.188H469.004V226.868H457.604V216.188ZM459.236 225.308H467.372V217.748H459.236V225.308ZM475.004 228.668V230.228H467.732L475.508 235.388L474.548 236.684L466.7 231.404L458.828 236.684L457.868 235.388L465.62 230.228H458.372V228.668H475.004Z" fill="white"/>
<path d="M489.043 219.836L480.883 225.236L479.899 223.964L488.011 218.564H480.067V217.028H488.227V215.228H489.859V217.028H498.019V218.564H490.075L498.187 223.964L497.203 225.236L489.043 219.836ZM479.107 228.5V226.94H498.979V228.5H490.339V232.124H488.707V228.5H479.107ZM480.355 230.852H481.987V234.884H498.211V236.444H480.355V230.852Z" fill="white"/>
<path d="M522.835 236.444V215.708H524.467V236.444H522.835ZM508.939 226.196L519.619 225.62L519.715 227.18L507.307 227.828V216.284H519.403V217.844H508.939V226.196ZM506.131 230.108L520.555 229.316L520.675 230.828L513.643 231.236V236.444H512.011V231.332L506.251 231.668L506.131 230.108Z" fill="white"/>
<path d="M529.842 238.292H528.282V233.828H530.322L529.842 238.292Z" fill="white"/>
<path d="M540.475 235.724H538.843V217.508H536.683L536.827 215.948H540.475V235.724Z" fill="white"/>
<path d="M551.144 235.82H547.808C545.336 235.82 543.872 234.308 543.872 231.716V219.956C543.872 217.364 545.336 215.852 547.808 215.852H551.144C553.616 215.852 555.08 217.364 555.08 219.956V231.716C555.08 234.308 553.616 235.82 551.144 235.82ZM547.808 234.26H551.144C552.728 234.26 553.448 233.42 553.448 231.548V220.124C553.448 218.252 552.728 217.412 551.144 217.412H547.808C546.224 217.412 545.504 218.252 545.504 220.124V231.548C545.504 233.42 546.224 234.26 547.808 234.26Z" fill="white"/>
<path d="M564.771 235.82H561.435C558.963 235.82 557.499 234.308 557.499 231.716V219.956C557.499 217.364 558.963 215.852 561.435 215.852H564.771C567.243 215.852 568.707 217.364 568.707 219.956V231.716C568.707 234.308 567.243 235.82 564.771 235.82ZM561.435 234.26H564.771C566.355 234.26 567.075 233.42 567.075 231.548V220.124C567.075 218.252 566.355 217.412 564.771 217.412H561.435C559.851 217.412 559.131 218.252 559.131 220.124V231.548C559.131 233.42 559.851 234.26 561.435 234.26Z" fill="white"/>
<path d="M588.142 224.468H583.678V226.868H572.326V216.188H583.678V218.276H588.142V215.708H589.774V226.988H588.142V224.468ZM573.958 225.308H582.046V217.748H573.958V225.308ZM588.142 222.932V219.812H583.678V222.932H588.142ZM577.102 228.548H585.934C588.406 228.548 589.966 229.844 589.966 232.1V233.012C589.966 235.268 588.406 236.564 585.934 236.564H577.102C574.63 236.564 573.07 235.268 573.07 233.012V232.1C573.07 229.844 574.63 228.548 577.102 228.548ZM588.334 233.084V232.028C588.334 230.804 587.59 230.108 585.934 230.108H577.102C575.446 230.108 574.702 230.804 574.702 232.028V233.084C574.702 234.308 575.446 235.004 577.102 235.004H585.934C587.59 235.004 588.334 234.308 588.334 233.084Z" fill="white"/>
<path d="M605.278 217.244H611.014V218.804H597.91V217.244H603.646V215.348H605.278V217.244ZM615.982 215.708V222.044H618.55V223.604H615.982V231.212H614.35V215.708H615.982ZM606.31 228.476H602.614C600.166 228.476 598.918 227.516 598.918 225.38V223.484C598.918 221.348 600.166 220.388 602.614 220.388H606.31C608.758 220.388 610.006 221.348 610.006 223.484V225.38C610.006 227.516 608.758 228.476 606.31 228.476ZM600.55 223.676V225.188C600.55 226.484 601.15 226.94 602.446 226.94H606.478C607.774 226.94 608.374 226.484 608.374 225.188V223.676C608.374 222.38 607.774 221.948 606.478 221.948H602.446C601.15 221.948 600.55 222.38 600.55 223.676ZM600.238 230.372H601.87V234.884H616.606V236.444H600.238V230.372Z" fill="white"/>
<path d="M632.829 222.356V220.796H637.365V215.708H638.997V226.988H637.365V222.356H632.829ZM632.685 226.268L631.365 227.084L626.757 218.9L622.149 227.084L620.829 226.268L625.533 217.748H620.589V216.188H632.925V217.748H627.981L632.685 226.268ZM626.325 228.548H635.157C637.629 228.548 639.189 229.844 639.189 232.1V233.012C639.189 235.268 637.629 236.564 635.157 236.564H626.325C623.853 236.564 622.293 235.268 622.293 233.012V232.1C622.293 229.844 623.853 228.548 626.325 228.548ZM637.557 233.084V232.028C637.557 230.804 636.813 230.108 635.157 230.108H626.325C624.669 230.108 623.925 230.804 623.925 232.028V233.084C623.925 234.308 624.669 235.004 626.325 235.004H635.157C636.813 235.004 637.557 234.308 637.557 233.084Z" fill="white"/>
<path d="M665.205 220.748H667.773V222.308H665.205V227.828H663.573V215.708H665.205V220.748ZM649.773 226.124L660.621 225.524L660.717 227.084L648.141 227.78V216.188H659.421V217.748H649.773V220.916H659.061V222.476H649.773V226.124ZM665.205 236.444H648.957V229.388H665.205V236.444ZM663.573 230.924H650.589V234.884H663.573V230.924Z" fill="white"/>
<path d="M687.644 224.612H690.212V226.172H687.644V236.444H686.012V215.708H687.644V224.612ZM669.764 235.316L675.044 216.188H677.492L682.772 235.316L681.212 235.796L676.268 217.844L671.324 235.796L669.764 235.316Z" fill="white"/>
<path d="M710.083 224.612H712.651V226.172H710.083V236.444H708.452V215.708H710.083V224.612ZM697.483 217.748H692.06V216.188H705.355V217.748H699.931L705.211 235.292L703.676 235.82L698.707 219.308L693.74 235.82L692.203 235.292L697.483 217.748Z" fill="white"/>
<path d="M731.467 218.54V215.708H733.099V227.636H731.467V225.212H726.571V223.676H731.467V220.076H726.571V218.54H731.467ZM721.387 227.852L719.851 227.3L723.955 217.748H715.651V216.188H725.803V217.604L721.387 227.852ZM731.467 230.756H716.563V229.196H733.099V236.444H731.467V230.756Z" fill="white"/>
<path d="M746.898 218.948L738.618 223.94L737.706 222.62L745.866 217.724H738.21V216.188H755.586V217.724H747.93L756.09 222.62L755.178 223.94L746.898 218.948ZM736.962 227.324V225.764H756.834V227.324H736.962ZM741.786 229.508H752.034C754.41 229.508 755.946 230.684 755.946 232.724V233.348C755.946 235.388 754.41 236.564 752.034 236.564H741.786C739.386 236.564 737.85 235.388 737.85 233.348V232.724C737.85 230.684 739.386 229.508 741.786 229.508ZM754.314 233.42V232.652C754.314 231.62 753.594 231.044 752.034 231.044H741.786C740.202 231.044 739.482 231.62 739.482 232.652V233.42C739.482 234.428 740.202 235.004 741.786 235.004H752.034C753.594 235.004 754.314 234.428 754.314 233.42Z" fill="white"/>
<path d="M774.833 222.716H763.841C761.753 222.716 760.289 221.972 760.289 220.052V218.732C760.289 216.812 761.753 216.068 763.841 216.068H774.833C776.921 216.068 778.385 216.812 778.385 218.732V220.052C778.385 221.972 776.921 222.716 774.833 222.716ZM763.841 221.18H774.833C776.105 221.18 776.753 220.772 776.753 219.764V219.02C776.753 218.012 776.105 217.604 774.833 217.604H763.841C762.569 217.604 761.921 218.012 761.921 219.02V219.764C761.921 220.772 762.569 221.18 763.841 221.18ZM779.273 226.268H759.401V224.708H779.273V226.268ZM778.505 236.444H760.409V231.86L776.633 231.308V229.82H760.409V228.284H778.265V232.748L762.041 233.3V234.908H778.505V236.444Z" fill="white"/>
<path d="M804.185 215.708V220.628H806.753V222.188H804.185V227.228H802.553V215.708H804.185ZM796.889 216.188H798.521V226.988H787.121V216.188H788.753V219.548H796.889V216.188ZM788.753 225.428H796.889V221.108H788.753V225.428ZM804.185 230.348H789.569V234.884H804.353V236.444H787.937V228.788H804.185V230.348Z" fill="white"/>
<path d="M826.624 224.612H829.192V226.172H826.624V236.444H824.992V215.708H826.624V224.612ZM813.616 215.948H816.904C819.544 215.948 821.08 217.388 821.08 220.052V231.62C821.08 234.284 819.544 235.724 816.904 235.724H813.616C810.976 235.724 809.44 234.284 809.44 231.62V220.052C809.44 217.388 810.976 215.948 813.616 215.948ZM819.448 231.212V220.46C819.448 218.348 818.728 217.508 816.904 217.508H813.616C811.792 217.508 811.072 218.348 811.072 220.46V231.212C811.072 233.324 811.792 234.164 813.616 234.164H816.904C818.728 234.164 819.448 233.324 819.448 231.212Z" fill="white"/>
<path d="M853.409 224.612H855.977V226.172H853.409V236.444H851.776V215.708H853.409V224.612ZM845.753 217.748H836.344V216.188H847.505V217.604L841.265 236.18L839.656 235.796L845.753 217.748Z" fill="white"/>
<path d="M875.416 236.444V215.708H877.048V236.444H875.416ZM867.064 224.372H870.736V215.756H872.344V236.084H870.736V225.932H867.064V224.372ZM857.872 235.46L861.592 216.188H864.04L867.76 235.46L866.176 235.796L862.816 218.3L859.456 235.796L857.872 235.46Z" fill="white"/>
<path d="M895.359 228.236V233.924H900.159V235.484H880.287V233.924H885.087V228.236C882.543 228.092 881.175 226.724 881.175 224.204V220.124C881.175 217.436 882.711 216.068 885.591 216.068H894.855C897.735 216.068 899.271 217.436 899.271 220.124V224.204C899.271 226.724 897.903 228.092 895.359 228.236ZM882.807 220.508V223.82C882.807 225.932 883.527 226.7 885.591 226.7H894.855C896.919 226.7 897.639 225.932 897.639 223.82V220.508C897.639 218.396 896.919 217.628 894.855 217.628H885.591C883.527 217.628 882.807 218.396 882.807 220.508ZM893.727 228.26H886.719V233.924H893.727V228.26Z" fill="white"/>
<path d="M904.214 236.132H903.518C902.87 236.132 902.63 235.772 902.63 235.1V234.74C902.63 234.068 902.87 233.708 903.518 233.708H904.214C904.862 233.708 905.102 234.068 905.102 234.74V235.1C905.102 235.772 904.862 236.132 904.214 236.132Z" fill="white"/>
</svg>
