<svg width="47" height="45" viewBox="0 0 47 45" fill="none" xmlns="http://www.w3.org/2000/svg">
<path fill-rule="evenodd" clip-rule="evenodd" d="M0.531714 33.2366C0.531714 33.2366 15.4507 34.2783 24.4896 44.0233V22.4868C15.4507 32.2319 0.508789 33.2366 0.508789 33.2366" fill="white"/>
<path d="M24.4814 22.4868H46.0478V27.1299H31.6584V31.0228H45.1419V35.4889H31.6584V39.3818H46.0478V44.0249H24.4814V22.4868Z" fill="white"/>
<path d="M15.9738 7.4599C15.8605 6.70257 15.4642 6.12218 14.7918 5.71166C14.1194 5.30114 13.0435 5.10296 11.5642 5.10296C9.21438 5.10296 8.03945 5.76828 8.03945 7.09185C8.03945 7.75717 8.54198 8.17477 9.54704 8.34464C10 8.4225 10.7149 8.53574 11.6916 8.68438C12.6684 8.83302 13.1992 8.91087 13.2983 8.91087C16.2357 9.38509 17.9485 9.66113 18.444 9.73191C20.4541 10.0717 21.9617 10.6874 22.9738 11.5792C23.986 12.4711 24.4956 13.7734 24.4956 15.5004C24.4956 17.0929 24.0568 18.374 23.172 19.3508C22.2944 20.3275 21.2114 21.0353 19.9303 21.4671C18.6492 21.9059 17.4389 22.1749 16.2923 22.274C15.1457 22.3801 13.9778 22.4297 12.7816 22.4297C10.9272 22.4297 9.29224 22.3306 7.87666 22.1324C6.46815 21.9342 5.22244 21.5803 4.15367 21.0778C3.08491 20.5753 2.23556 19.8746 1.61271 18.9757C0.989849 18.0768 0.628876 16.9372 0.529785 15.55H8.54198C8.63399 16.3851 9.00912 17.008 9.65321 17.4256C10.2973 17.8432 11.4439 18.0485 13.0931 18.0485C13.5673 18.0485 14.0061 18.0131 14.4166 17.9494C14.8272 17.8857 15.1952 17.7724 15.542 17.6096C15.8818 17.4468 16.1507 17.2274 16.3489 16.9585C16.5471 16.6824 16.6462 16.3356 16.6462 15.918C16.6462 15.3872 16.4126 14.9979 15.9525 14.7501C15.4854 14.5024 14.6502 14.283 13.4399 14.099L6.68049 13.0727C4.67036 12.7683 3.20523 12.1313 2.27803 11.1546C1.35082 10.1778 0.883681 8.9038 0.883681 7.3325C0.883681 6.57516 1.03232 5.8249 1.32251 5.0888C1.61271 4.3527 2.14355 3.66614 2.91504 3.02913C3.67945 2.39212 4.76945 1.87543 6.17088 1.47907C7.5723 1.08978 9.32763 0.891602 11.4298 0.891602C15.2518 0.891602 18.1962 1.40121 20.2488 2.42751C22.3014 3.4538 23.4339 5.12419 23.6462 7.4599H15.9738Z" fill="white"/>
<path d="M35.2823 22.4446C35.2823 16.492 30.4552 11.6578 24.4956 11.6578C30.4481 11.6578 35.2823 6.83069 35.2823 0.871094C35.2823 6.82362 40.1095 11.6578 46.0691 11.6578C40.1166 11.6578 35.2823 16.485 35.2823 22.4446Z" fill="white"/>
</svg>
