<svg width="196" height="28" viewBox="0 0 196 28" fill="none" xmlns="http://www.w3.org/2000/svg">
<path fill-rule="evenodd" clip-rule="evenodd" d="M0.663662 20.5839C0.663662 20.5839 10.0948 21.2294 15.8088 27.2687V13.9219C10.0948 19.9612 0.64917 20.5839 0.64917 20.5839" fill="white"/>
<path d="M15.8037 13.9219H29.4371V16.7994H20.3407V19.2119H28.8644V21.9797H20.3407V24.3922H29.4371V27.2697H15.8037V13.9219Z" fill="white"/>
<path d="M10.4256 4.60867C10.354 4.13933 10.1035 3.77964 9.67842 3.52523C9.25336 3.27082 8.57326 3.148 7.63812 3.148C6.15263 3.148 5.40989 3.56032 5.40989 4.38058C5.40989 4.7929 5.72757 5.0517 6.36293 5.15697C6.64928 5.20522 7.10119 5.27541 7.71866 5.36752C8.33612 5.45964 8.67169 5.50789 8.73433 5.50789C10.5912 5.80178 11.674 5.97285 11.9872 6.01671C13.2579 6.22726 14.2109 6.60887 14.8508 7.16156C15.4906 7.71425 15.8128 8.52135 15.8128 9.59163C15.8128 10.5786 15.5354 11.3725 14.9761 11.9778C14.4212 12.5832 13.7367 13.0218 12.9268 13.2894C12.1169 13.5613 11.3518 13.728 10.627 13.7894C9.90214 13.8552 9.16387 13.8859 8.40771 13.8859C7.23543 13.8859 6.20185 13.8245 5.30698 13.7017C4.41658 13.5789 3.62909 13.3596 2.95347 13.0481C2.27784 12.7367 1.74092 12.3024 1.34717 11.7454C0.953431 11.1883 0.725239 10.4821 0.662598 9.62234H5.72757C5.78573 10.1399 6.02287 10.5259 6.43004 10.7847C6.83721 11.0435 7.56205 11.1707 8.60458 11.1707C8.90436 11.1707 9.18177 11.1488 9.44128 11.1093C9.70079 11.0699 9.93346 10.9997 10.1527 10.8988C10.3675 10.7979 10.5375 10.6619 10.6628 10.4952C10.7881 10.3242 10.8507 10.1092 10.8507 9.85043C10.8507 9.52145 10.703 9.2802 10.4122 9.12667C10.1169 8.97315 9.58893 8.83717 8.82382 8.72312L4.55081 8.08709C3.2801 7.89848 2.3539 7.5037 1.76776 6.89838C1.18162 6.29305 0.886315 5.5035 0.886315 4.52972C0.886315 4.06037 0.980277 3.59541 1.16373 3.13923C1.34717 2.68304 1.68275 2.25756 2.17046 1.86278C2.65369 1.468 3.34274 1.1478 4.22866 0.902158C5.11458 0.660905 6.22422 0.538086 7.5531 0.538086C9.96926 0.538086 11.8306 0.853907 13.1281 1.48994C14.4257 2.12597 15.1416 3.16116 15.2758 4.60867H10.4256Z" fill="white"/>
<path d="M22.6314 13.8956C22.6314 10.2067 19.5799 7.21076 15.8125 7.21076C19.5754 7.21076 22.6314 4.21923 22.6314 0.525879C22.6314 4.21485 25.6829 7.21076 29.4503 7.21076C25.6874 7.21076 22.6314 10.2023 22.6314 13.8956Z" fill="white"/>
<path d="M58.044 3.9787V8.12607H60.4633V10.7758H58.044V15.0384H55.3022V3.9787H58.044ZM49.2885 4.32432H52.0304V14.9231H40.9707V4.32432H43.7126V7.04315H49.2885V4.32432ZM43.7126 12.5499H49.2885V9.4394H43.7126V12.5499ZM45.5558 16.2365H54.657C57.1685 16.2365 58.4588 17.4807 58.4588 19.6696V20.7986C58.4588 22.9875 57.1685 24.2317 54.657 24.2317H45.5558C43.0444 24.2317 41.7311 22.9875 41.7311 20.7986V19.6696C41.7311 17.5037 43.0444 16.2365 45.5558 16.2365ZM55.7169 20.5451V19.8769C55.7169 19.0936 55.233 18.6558 54.1501 18.6558H46.0628C44.9798 18.6558 44.496 19.0936 44.496 19.8769V20.5451C44.496 21.3285 44.9798 21.7663 46.0628 21.7663H54.1501C55.233 21.7663 55.7169 21.3285 55.7169 20.5451Z" fill="white"/>
<path d="M77.9735 12.8034H74.287V14.8079H63.2734V4.32432H74.287V6.07543H77.9735V3.9787H80.7154V14.9231H77.9735V12.8034ZM66.0153 12.3886H71.5451V6.76666H66.0153V12.3886ZM77.9735 10.5454V8.33344H74.287V10.5454H77.9735ZM67.8125 16.1213H77.075C79.6095 16.1213 80.8997 17.3885 80.8997 19.6005V20.7525C80.8997 22.9875 79.6095 24.2317 77.075 24.2317H67.8125C65.301 24.2317 63.9877 22.9875 63.9877 20.7525V19.6005C63.9877 17.3885 65.301 16.1213 67.8125 16.1213ZM78.1579 20.4991V19.8078C78.1579 19.0014 77.674 18.5636 76.5681 18.5636H68.3194C67.2365 18.5636 66.7526 19.0014 66.7526 19.8078V20.4991C66.7526 21.3055 67.2365 21.7433 68.3194 21.7433H76.5681C77.674 21.7433 78.1579 21.3055 78.1579 20.4991Z" fill="white"/>
<path d="M95.5759 13.126V14.8079H103.848V17.1351H84.5393V14.8079H92.834V13.126H85.507V8.03391L100.161 7.57309V6.44408H85.507V4.32432H102.88V9.4394L88.2489 9.90022V11.0523H103.041V13.126H95.5759ZM100.138 21.006H85.507V18.5636H102.88V24.1165H100.138V21.006Z" fill="white"/>
<path d="M129.079 8.58689H131.499V11.2366H129.079V15.7296H126.338V3.9787H129.079V8.58689ZM117.605 8.88642L113.481 15.6374L111.2 14.3702L115.785 6.81274H111.246V4.32432H123.941V6.81274H119.379L123.987 14.3702L121.706 15.6374L117.605 8.88642ZM126.338 19.4622H112.789V16.9277H129.079V24.1165H126.338V19.4622Z" fill="white"/>
<path d="M151.751 14.7388H149.009V10.5684H145.484V7.98783H149.009V3.9787H151.751V14.7388ZM143.064 14.7619L139.562 6.97402L136.037 14.7619L133.595 13.6559L137.811 4.32432H141.29L145.484 13.6559L143.064 14.7619ZM138.894 15.9369H148.087C150.622 15.9369 151.935 17.2272 151.935 19.5083V20.6603C151.935 22.9644 150.622 24.2317 148.087 24.2317H138.894C136.336 24.2317 135.023 22.9644 135.023 20.6603V19.5083C135.023 17.2272 136.336 15.9369 138.894 15.9369ZM149.193 20.4069V19.7157C149.193 18.8631 148.686 18.4023 147.58 18.4023H139.401C138.272 18.4023 137.788 18.8631 137.788 19.7157V20.4069C137.788 21.2594 138.272 21.7202 139.401 21.7202H147.58C148.686 21.7202 149.193 21.2594 149.193 20.4069Z" fill="white"/>
<path d="M160.367 3.56396H163.086V5.86806H168.04V8.44864H155.39V5.86806H160.367V3.56396ZM173.316 11.9509H175.736V14.6006H173.316V24.1165H170.574V3.9787H173.316V11.9509ZM160.229 10.361H163.224C165.92 10.361 167.187 11.8357 167.187 14.6467V19.1857C167.187 22.0198 165.92 23.4944 163.224 23.4944H160.229C157.533 23.4944 156.243 22.0198 156.243 19.1857V14.6467C156.243 11.8357 157.533 10.361 160.229 10.361ZM164.445 18.9092V14.9462C164.445 13.4946 163.985 12.9186 162.74 12.9186H160.69C159.446 12.9186 158.985 13.4946 158.985 14.9462V18.9092C158.985 20.3378 159.446 20.9368 160.69 20.9368H162.74C163.985 20.9368 164.445 20.3378 164.445 18.9092Z" fill="white"/>
<path d="M193.246 24.1165V3.9787H195.988V24.1165H193.246ZM186.725 6.88186H178.523V4.32432H189.697V6.74361L184.006 23.7248L181.264 23.1027L186.725 6.88186Z" fill="white"/>
</svg>
