<svg width="49" height="48" viewBox="0 0 49 48" fill="none" xmlns="http://www.w3.org/2000/svg">
<path d="M15.5006 -0.000732422H13.8726V1.62734H15.5006V-0.000732422Z" fill="white"/>
<path d="M18.757 -0.000732422H17.1289V1.62734H18.757V-0.000732422Z" fill="white"/>
<path d="M20.3849 -0.000732422H18.7568V1.62734H20.3849V-0.000732422Z" fill="white"/>
<path d="M28.5255 -0.000732422H26.8975V1.62734H28.5255V-0.000732422Z" fill="white"/>
<path d="M31.7814 -0.000732422H30.1533V1.62734H31.7814V-0.000732422Z" fill="white"/>
<path d="M33.4098 -0.000732422H31.7817V1.62734H33.4098V-0.000732422Z" fill="white"/>
<path d="M35.0373 -0.000732422H33.4092V1.62734H35.0373V-0.000732422Z" fill="white"/>
<path d="M15.5006 1.62817H13.8726V3.25625H15.5006V1.62817Z" fill="white"/>
<path d="M17.1291 1.62817H15.501V3.25625H17.1291V1.62817Z" fill="white"/>
<path d="M22.0133 1.62817H20.3853V3.25625H22.0133V1.62817Z" fill="white"/>
<path d="M23.6413 1.62817H22.0132V3.25625H23.6413V1.62817Z" fill="white"/>
<path d="M25.2692 1.62817H23.6411V3.25625H25.2692V1.62817Z" fill="white"/>
<path d="M28.5255 1.62817H26.8975V3.25625H28.5255V1.62817Z" fill="white"/>
<path d="M35.0373 1.62817H33.4092V3.25625H35.0373V1.62817Z" fill="white"/>
<path d="M18.757 3.25537H17.1289V4.88345H18.757V3.25537Z" fill="white"/>
<path d="M20.3849 3.25537H18.7568V4.88345H20.3849V3.25537Z" fill="white"/>
<path d="M23.6413 3.25537H22.0132V4.88345H23.6413V3.25537Z" fill="white"/>
<path d="M25.2692 3.25537H23.6411V4.88345H25.2692V3.25537Z" fill="white"/>
<path d="M28.5255 3.25537H26.8975V4.88345H28.5255V3.25537Z" fill="white"/>
<path d="M31.7814 3.25537H30.1533V4.88345H31.7814V3.25537Z" fill="white"/>
<path d="M35.0373 3.25537H33.4092V4.88345H35.0373V3.25537Z" fill="white"/>
<path d="M15.5006 4.88354H13.8726V6.51162H15.5006V4.88354Z" fill="white"/>
<path d="M18.757 4.88354H17.1289V6.51162H18.757V4.88354Z" fill="white"/>
<path d="M23.6413 4.88354H22.0132V6.51162H23.6413V4.88354Z" fill="white"/>
<path d="M25.2692 4.88354H23.6411V6.51162H25.2692V4.88354Z" fill="white"/>
<path d="M30.1535 4.88354H28.5254V6.51162H30.1535V4.88354Z" fill="white"/>
<path d="M33.4098 4.88354H31.7817V6.51162H33.4098V4.88354Z" fill="white"/>
<path d="M17.1291 6.5127H15.501V8.14077H17.1291V6.5127Z" fill="white"/>
<path d="M23.6413 6.5127H22.0132V8.14077H23.6413V6.5127Z" fill="white"/>
<path d="M25.2692 6.5127H23.6411V8.14077H25.2692V6.5127Z" fill="white"/>
<path d="M26.8976 6.5127H25.2695V8.14077H26.8976V6.5127Z" fill="white"/>
<path d="M28.5255 6.5127H26.8975V8.14077H28.5255V6.5127Z" fill="white"/>
<path d="M33.4093 6.51245H31.7812V8.14053H33.4093V6.51245Z" fill="white"/>
<path d="M35.0373 6.51245H33.4092V8.14053H35.0373V6.51245Z" fill="white"/>
<path d="M17.1291 8.13892H15.501V9.76699H17.1291V8.13892Z" fill="white"/>
<path d="M18.757 8.13892H17.1289V9.76699H18.757V8.13892Z" fill="white"/>
<path d="M20.3849 8.13892H18.7568V9.76699H20.3849V8.13892Z" fill="white"/>
<path d="M22.0133 8.13892H20.3853V9.76699H22.0133V8.13892Z" fill="white"/>
<path d="M23.6413 8.13892H22.0132V9.76699H23.6413V8.13892Z" fill="white"/>
<path d="M28.5255 8.13892H26.8975V9.76699H28.5255V8.13892Z" fill="white"/>
<path d="M30.1535 8.13892H28.5254V9.76699H30.1535V8.13892Z" fill="white"/>
<path d="M31.7814 8.13892H30.1533V9.76699H31.7814V8.13892Z" fill="white"/>
<path d="M33.4093 8.13892H31.7812V9.76699H33.4093V8.13892Z" fill="white"/>
<path d="M35.0373 8.13892H33.4092V9.76699H35.0373V8.13892Z" fill="white"/>
<path d="M15.5006 9.76733H13.8726V11.3954H15.5006V9.76733Z" fill="white"/>
<path d="M18.757 9.76733H17.1289V11.3954H18.757V9.76733Z" fill="white"/>
<path d="M22.0133 9.76733H20.3853V11.3954H22.0133V9.76733Z" fill="white"/>
<path d="M25.2692 9.76733H23.6411V11.3954H25.2692V9.76733Z" fill="white"/>
<path d="M28.5255 9.76733H26.8975V11.3954H28.5255V9.76733Z" fill="white"/>
<path d="M31.7814 9.76733H30.1533V11.3954H31.7814V9.76733Z" fill="white"/>
<path d="M35.0373 9.76709H33.4092V11.3952H35.0373V9.76709Z" fill="white"/>
<path d="M15.5006 11.396H13.8726V13.0241H15.5006V11.396Z" fill="white"/>
<path d="M17.1291 11.396H15.501V13.0241H17.1291V11.396Z" fill="white"/>
<path d="M18.757 11.396H17.1289V13.0241H18.757V11.396Z" fill="white"/>
<path d="M20.3849 11.396H18.7568V13.0241H20.3849V11.396Z" fill="white"/>
<path d="M22.0133 11.396H20.3853V13.0241H22.0133V11.396Z" fill="white"/>
<path d="M26.8976 11.396H25.2695V13.0241H26.8976V11.396Z" fill="white"/>
<path d="M28.5255 11.396H26.8975V13.0241H28.5255V11.396Z" fill="white"/>
<path d="M30.1535 11.396H28.5254V13.0241H30.1535V11.396Z" fill="white"/>
<path d="M31.7814 11.396H30.1533V13.0241H31.7814V11.396Z" fill="white"/>
<path d="M2.47622 13.0232H0.848145V14.6513H2.47622V13.0232Z" fill="white"/>
<path d="M5.73208 13.0232H4.104V14.6513H5.73208V13.0232Z" fill="white"/>
<path d="M7.36001 13.0234H5.73193V14.6515H7.36001V13.0234Z" fill="white"/>
<path d="M10.6168 13.0234H8.98877V14.6515H10.6168V13.0234Z" fill="white"/>
<path d="M12.2443 13.0234H10.6162V14.6515H12.2443V13.0234Z" fill="white"/>
<path d="M13.8727 13.0232H12.2446V14.6513H13.8727V13.0232Z" fill="white"/>
<path d="M20.3849 13.0232H18.7568V14.6513H20.3849V13.0232Z" fill="white"/>
<path d="M22.0133 13.0234H20.3853V14.6515H22.0133V13.0234Z" fill="white"/>
<path d="M25.2692 13.0234H23.6411V14.6515H25.2692V13.0234Z" fill="white"/>
<path d="M28.5255 13.0232H26.8975V14.6513H28.5255V13.0232Z" fill="white"/>
<path d="M30.1535 13.0234H28.5254V14.6515H30.1535V13.0234Z" fill="white"/>
<path d="M31.7814 13.0232H30.1533V14.6513H31.7814V13.0232Z" fill="white"/>
<path d="M38.2936 13.0232H36.6655V14.6513H38.2936V13.0232Z" fill="white"/>
<path d="M43.1784 13.0232H41.5503V14.6513H43.1784V13.0232Z" fill="white"/>
<path d="M46.4342 13.0232H44.8062V14.6513H46.4342V13.0232Z" fill="white"/>
<path d="M48.0622 13.0232H46.4341V14.6513H48.0622V13.0232Z" fill="white"/>
<path d="M2.47622 14.6504H0.848145V16.2785H2.47622V14.6504Z" fill="white"/>
<path d="M4.10464 14.6504H2.47656V16.2785H4.10464V14.6504Z" fill="white"/>
<path d="M5.73208 14.6504H4.104V16.2785H5.73208V14.6504Z" fill="white"/>
<path d="M8.98843 14.6504H7.36035V16.2785H8.98843V14.6504Z" fill="white"/>
<path d="M13.8727 14.6504H12.2446V16.2785H13.8727V14.6504Z" fill="white"/>
<path d="M20.3849 14.6504H18.7568V16.2785H20.3849V14.6504Z" fill="white"/>
<path d="M28.5255 14.6504H26.8975V16.2785H28.5255V14.6504Z" fill="white"/>
<path d="M30.1535 14.6504H28.5254V16.2785H30.1535V14.6504Z" fill="white"/>
<path d="M31.7814 14.6504H30.1533V16.2785H31.7814V14.6504Z" fill="white"/>
<path d="M33.4093 14.6504H31.7812V16.2785H33.4093V14.6504Z" fill="white"/>
<path d="M35.0373 14.6504H33.4092V16.2785H35.0373V14.6504Z" fill="white"/>
<path d="M36.6652 14.6504H35.0371V16.2785H36.6652V14.6504Z" fill="white"/>
<path d="M38.2936 14.6504H36.6655V16.2785H38.2936V14.6504Z" fill="white"/>
<path d="M39.922 14.6504H38.2939V16.2785H39.922V14.6504Z" fill="white"/>
<path d="M41.5495 14.6504H39.9214V16.2785H41.5495V14.6504Z" fill="white"/>
<path d="M48.0622 14.6504H46.4341V16.2785H48.0622V14.6504Z" fill="white"/>
<path d="M2.47622 16.2793H0.848145V17.9074H2.47622V16.2793Z" fill="white"/>
<path d="M8.98843 16.2793H7.36035V17.9074H8.98843V16.2793Z" fill="white"/>
<path d="M12.2443 16.2793H10.6162V17.9074H12.2443V16.2793Z" fill="white"/>
<path d="M15.5006 16.2793H13.8726V17.9074H15.5006V16.2793Z" fill="white"/>
<path d="M18.757 16.2793H17.1289V17.9074H18.757V16.2793Z" fill="white"/>
<path d="M20.3849 16.2793H18.7568V17.9074H20.3849V16.2793Z" fill="white"/>
<path d="M25.2692 16.2793H23.6411V17.9074H25.2692V16.2793Z" fill="white"/>
<path d="M30.1535 16.2793H28.5254V17.9074H30.1535V16.2793Z" fill="white"/>
<path d="M31.7814 16.2793H30.1533V17.9074H31.7814V16.2793Z" fill="white"/>
<path d="M38.2936 16.2793H36.6655V17.9074H38.2936V16.2793Z" fill="white"/>
<path d="M39.922 16.2793H38.2939V17.9074H39.922V16.2793Z" fill="white"/>
<path d="M41.5499 16.2793H39.9219V17.9074H41.5499V16.2793Z" fill="white"/>
<path d="M44.8063 16.2793H43.1782V17.9074H44.8063V16.2793Z" fill="white"/>
<path d="M46.4342 16.2793H44.8062V17.9074H46.4342V16.2793Z" fill="white"/>
<path d="M2.47622 17.9077H0.848145V19.5358H2.47622V17.9077Z" fill="white"/>
<path d="M5.73208 17.9077H4.104V19.5358H5.73208V17.9077Z" fill="white"/>
<path d="M10.6168 17.9077H8.98877V19.5358H10.6168V17.9077Z" fill="white"/>
<path d="M13.8727 17.9077H12.2446V19.5358H13.8727V17.9077Z" fill="white"/>
<path d="M17.1291 17.9077H15.501V19.5358H17.1291V17.9077Z" fill="white"/>
<path d="M18.757 17.9077H17.1289V19.5358H18.757V17.9077Z" fill="white"/>
<path d="M23.6413 17.9077H22.0132V19.5358H23.6413V17.9077Z" fill="white"/>
<path d="M25.2692 17.9077H23.6411V19.5358H25.2692V17.9077Z" fill="white"/>
<path d="M26.8976 17.9077H25.2695V19.5358H26.8976V17.9077Z" fill="white"/>
<path d="M31.7814 17.9077H30.1533V19.5358H31.7814V17.9077Z" fill="white"/>
<path d="M33.4093 17.9072H31.7812V19.5353H33.4093V17.9072Z" fill="white"/>
<path d="M36.6652 17.9072H35.0371V19.5353H36.6652V17.9072Z" fill="white"/>
<path d="M38.2936 17.9072H36.6655V19.5353H38.2936V17.9072Z" fill="white"/>
<path d="M39.922 17.9077H38.2939V19.5358H39.922V17.9077Z" fill="white"/>
<path d="M41.5495 17.9072H39.9214V19.5353H41.5495V17.9072Z" fill="white"/>
<path d="M48.0622 17.9077H46.4341V19.5358H48.0622V17.9077Z" fill="white"/>
<path d="M4.10464 19.5356H2.47656V21.1637H4.10464V19.5356Z" fill="white"/>
<path d="M5.73208 19.5356H4.104V21.1637H5.73208V19.5356Z" fill="white"/>
<path d="M7.36001 19.5356H5.73193V21.1637H7.36001V19.5356Z" fill="white"/>
<path d="M12.2443 19.5356H10.6162V21.1637H12.2443V19.5356Z" fill="white"/>
<path d="M23.6413 19.5356H22.0132V21.1637H23.6413V19.5356Z" fill="white"/>
<path d="M25.2692 19.5356H23.6411V21.1637H25.2692V19.5356Z" fill="white"/>
<path d="M26.8976 19.5356H25.2695V21.1637H26.8976V19.5356Z" fill="white"/>
<path d="M30.1535 19.5356H28.5254V21.1637H30.1535V19.5356Z" fill="white"/>
<path d="M31.7814 19.5356H30.1533V21.1637H31.7814V19.5356Z" fill="white"/>
<path d="M43.1784 19.5356H41.5503V21.1637H43.1784V19.5356Z" fill="white"/>
<path d="M44.8058 19.5354H43.1777V21.1635H44.8058V19.5354Z" fill="white"/>
<path d="M7.36001 21.1638H5.73193V22.7919H7.36001V21.1638Z" fill="white"/>
<path d="M10.6168 21.1638H8.98877V22.7919H10.6168V21.1638Z" fill="white"/>
<path d="M13.8727 21.1638H12.2446V22.7919H13.8727V21.1638Z" fill="white"/>
<path d="M15.5006 21.1636H13.8726V22.7916H15.5006V21.1636Z" fill="white"/>
<path d="M17.1291 21.1638H15.501V22.7919H17.1291V21.1638Z" fill="white"/>
<path d="M20.3849 21.1638H18.7568V22.7919H20.3849V21.1638Z" fill="white"/>
<path d="M22.0133 21.1636H20.3853V22.7916H22.0133V21.1636Z" fill="white"/>
<path d="M23.6413 21.1638H22.0132V22.7919H23.6413V21.1638Z" fill="white"/>
<path d="M25.2692 21.1638H23.6411V22.7919H25.2692V21.1638Z" fill="white"/>
<path d="M26.8976 21.1636H25.2695V22.7916H26.8976V21.1636Z" fill="white"/>
<path d="M28.5255 21.1636H26.8975V22.7916H28.5255V21.1636Z" fill="white"/>
<path d="M33.4098 21.1636H31.7817V22.7916H33.4098V21.1636Z" fill="white"/>
<path d="M38.2936 21.1636H36.6655V22.7916H38.2936V21.1636Z" fill="white"/>
<path d="M39.922 21.1636H38.2939V22.7916H39.922V21.1636Z" fill="white"/>
<path d="M44.8063 21.1636H43.1782V22.7916H44.8063V21.1636Z" fill="white"/>
<path d="M46.4342 21.1636H44.8062V22.7916H46.4342V21.1636Z" fill="white"/>
<path d="M48.0622 21.1638H46.4341V22.7919H48.0622V21.1638Z" fill="white"/>
<path d="M2.47622 22.7917H0.848145V24.4198H2.47622V22.7917Z" fill="white"/>
<path d="M5.73208 22.7917H4.104V24.4198H5.73208V22.7917Z" fill="white"/>
<path d="M7.3605 22.7917H5.73242V24.4198H7.3605V22.7917Z" fill="white"/>
<path d="M12.2443 22.7917H10.6162V24.4198H12.2443V22.7917Z" fill="white"/>
<path d="M13.8727 22.7917H12.2446V24.4198H13.8727V22.7917Z" fill="white"/>
<path d="M20.3849 22.7917H18.7568V24.4198H20.3849V22.7917Z" fill="white"/>
<path d="M23.6413 22.7917H22.0132V24.4198H23.6413V22.7917Z" fill="white"/>
<path d="M25.2692 22.7917H23.6411V24.4198H25.2692V22.7917Z" fill="white"/>
<path d="M30.1535 22.7917H28.5254V24.4198H30.1535V22.7917Z" fill="white"/>
<path d="M31.7814 22.7917H30.1533V24.4198H31.7814V22.7917Z" fill="white"/>
<path d="M33.4093 22.7915H31.7812V24.4196H33.4093V22.7915Z" fill="white"/>
<path d="M36.6657 22.7915H35.0376V24.4196H36.6657V22.7915Z" fill="white"/>
<path d="M39.922 22.7917H38.2939V24.4198H39.922V22.7917Z" fill="white"/>
<path d="M41.5495 22.7915H39.9214V24.4196H41.5495V22.7915Z" fill="white"/>
<path d="M44.8063 22.7917H43.1782V24.4198H44.8063V22.7917Z" fill="white"/>
<path d="M46.4342 22.7915H44.8062V24.4196H46.4342V22.7915Z" fill="white"/>
<path d="M48.0622 22.7917H46.4341V24.4198H48.0622V22.7917Z" fill="white"/>
<path d="M2.47622 24.4189H0.848145V26.047H2.47622V24.4189Z" fill="white"/>
<path d="M4.10464 24.4189H2.47656V26.047H4.10464V24.4189Z" fill="white"/>
<path d="M7.3605 24.4189H5.73242V26.047H7.3605V24.4189Z" fill="white"/>
<path d="M17.1291 24.4189H15.501V26.047H17.1291V24.4189Z" fill="white"/>
<path d="M18.757 24.4189H17.1289V26.047H18.757V24.4189Z" fill="white"/>
<path d="M22.0133 24.4189H20.3853V26.047H22.0133V24.4189Z" fill="white"/>
<path d="M28.5255 24.4189H26.8975V26.047H28.5255V24.4189Z" fill="white"/>
<path d="M33.4093 24.4189H31.7812V26.047H33.4093V24.4189Z" fill="white"/>
<path d="M36.6657 24.4189H35.0376V26.047H36.6657V24.4189Z" fill="white"/>
<path d="M38.2936 24.4189H36.6655V26.047H38.2936V24.4189Z" fill="white"/>
<path d="M39.922 24.4189H38.2939V26.047H39.922V24.4189Z" fill="white"/>
<path d="M41.5495 24.4189H39.9214V26.047H41.5495V24.4189Z" fill="white"/>
<path d="M46.4342 24.4189H44.8062V26.047H46.4342V24.4189Z" fill="white"/>
<path d="M4.10464 26.0471H2.47656V27.6752H4.10464V26.0471Z" fill="white"/>
<path d="M5.73208 26.0471H4.104V27.6752H5.73208V26.0471Z" fill="white"/>
<path d="M7.36001 26.0471H5.73193V27.6752H7.36001V26.0471Z" fill="white"/>
<path d="M10.6168 26.0471H8.98877V27.6752H10.6168V26.0471Z" fill="white"/>
<path d="M12.2443 26.0471H10.6162V27.6752H12.2443V26.0471Z" fill="white"/>
<path d="M13.8727 26.0471H12.2446V27.6752H13.8727V26.0471Z" fill="white"/>
<path d="M18.757 26.0471H17.1289V27.6752H18.757V26.0471Z" fill="white"/>
<path d="M23.6413 26.0471H22.0132V27.6752H23.6413V26.0471Z" fill="white"/>
<path d="M25.2692 26.0471H23.6411V27.6752H25.2692V26.0471Z" fill="white"/>
<path d="M26.8976 26.0471H25.2695V27.6752H26.8976V26.0471Z" fill="white"/>
<path d="M31.7814 26.0471H30.1533V27.6752H31.7814V26.0471Z" fill="white"/>
<path d="M36.6652 26.0471H35.0371V27.6752H36.6652V26.0471Z" fill="white"/>
<path d="M41.5495 26.0471H39.9214V27.6752H41.5495V26.0471Z" fill="white"/>
<path d="M43.1784 26.0471H41.5503V27.6752H43.1784V26.0471Z" fill="white"/>
<path d="M46.4342 26.0471H44.8062V27.6752H46.4342V26.0471Z" fill="white"/>
<path d="M4.10464 27.676H2.47656V29.3041H4.10464V27.676Z" fill="white"/>
<path d="M5.73208 27.676H4.104V29.3041H5.73208V27.676Z" fill="white"/>
<path d="M10.6168 27.676H8.98877V29.3041H10.6168V27.676Z" fill="white"/>
<path d="M20.3849 27.676H18.7568V29.3041H20.3849V27.676Z" fill="white"/>
<path d="M26.8976 27.676H25.2695V29.3041H26.8976V27.676Z" fill="white"/>
<path d="M31.7814 27.676H30.1533V29.3041H31.7814V27.676Z" fill="white"/>
<path d="M35.0373 27.6758H33.4092V29.3039H35.0373V27.6758Z" fill="white"/>
<path d="M36.6652 27.6758H35.0371V29.3039H36.6652V27.6758Z" fill="white"/>
<path d="M39.922 27.676H38.2939V29.3041H39.922V27.676Z" fill="white"/>
<path d="M43.1784 27.676H41.5503V29.3041H43.1784V27.676Z" fill="white"/>
<path d="M44.8058 27.6758H43.1777V29.3039H44.8058V27.6758Z" fill="white"/>
<path d="M46.4342 27.6758H44.8062V29.3039H46.4342V27.6758Z" fill="white"/>
<path d="M2.47622 29.3032H0.848145V30.9313H2.47622V29.3032Z" fill="white"/>
<path d="M7.36001 29.3032H5.73193V30.9313H7.36001V29.3032Z" fill="white"/>
<path d="M8.98843 29.3032H7.36035V30.9313H8.98843V29.3032Z" fill="white"/>
<path d="M10.6168 29.3032H8.98877V30.9313H10.6168V29.3032Z" fill="white"/>
<path d="M12.2443 29.3032H10.6162V30.9313H12.2443V29.3032Z" fill="white"/>
<path d="M20.3849 29.3032H18.7568V30.9313H20.3849V29.3032Z" fill="white"/>
<path d="M23.6413 29.3032H22.0132V30.9313H23.6413V29.3032Z" fill="white"/>
<path d="M25.2692 29.3032H23.6411V30.9313H25.2692V29.3032Z" fill="white"/>
<path d="M26.8976 29.3032H25.2695V30.9313H26.8976V29.3032Z" fill="white"/>
<path d="M28.5255 29.3032H26.8975V30.9313H28.5255V29.3032Z" fill="white"/>
<path d="M35.0373 29.3032H33.4092V30.9313H35.0373V29.3032Z" fill="white"/>
<path d="M36.6652 29.3032H35.0371V30.9313H36.6652V29.3032Z" fill="white"/>
<path d="M39.922 29.3032H38.2939V30.9313H39.922V29.3032Z" fill="white"/>
<path d="M44.8058 29.3032H43.1777V30.9313H44.8058V29.3032Z" fill="white"/>
<path d="M8.98843 30.9321H7.36035V32.5602H8.98843V30.9321Z" fill="white"/>
<path d="M15.5006 30.9321H13.8726V32.5602H15.5006V30.9321Z" fill="white"/>
<path d="M17.1291 30.9324H15.501V32.5604H17.1291V30.9324Z" fill="white"/>
<path d="M18.757 30.9324H17.1289V32.5604H18.757V30.9324Z" fill="white"/>
<path d="M26.8976 30.9321H25.2695V32.5602H26.8976V30.9321Z" fill="white"/>
<path d="M28.5255 30.9321H26.8975V32.5602H28.5255V30.9321Z" fill="white"/>
<path d="M30.1535 30.9321H28.5254V32.5602H30.1535V30.9321Z" fill="white"/>
<path d="M33.4098 30.9321H31.7817V32.5602H33.4098V30.9321Z" fill="white"/>
<path d="M36.6652 30.9321H35.0371V32.5602H36.6652V30.9321Z" fill="white"/>
<path d="M38.2936 30.9321H36.6655V32.5602H38.2936V30.9321Z" fill="white"/>
<path d="M44.8063 30.9321H43.1782V32.5602H44.8063V30.9321Z" fill="white"/>
<path d="M4.10464 32.5603H2.47656V34.1884H4.10464V32.5603Z" fill="white"/>
<path d="M8.98843 32.5605H7.36035V34.1886H8.98843V32.5605Z" fill="white"/>
<path d="M10.6168 32.5603H8.98877V34.1884H10.6168V32.5603Z" fill="white"/>
<path d="M12.2443 32.5603H10.6162V34.1884H12.2443V32.5603Z" fill="white"/>
<path d="M13.8727 32.5605H12.2446V34.1886H13.8727V32.5605Z" fill="white"/>
<path d="M15.5006 32.5603H13.8726V34.1884H15.5006V32.5603Z" fill="white"/>
<path d="M18.757 32.5605H17.1289V34.1886H18.757V32.5605Z" fill="white"/>
<path d="M20.3849 32.5605H18.7568V34.1886H20.3849V32.5605Z" fill="white"/>
<path d="M23.6413 32.5605H22.0132V34.1886H23.6413V32.5605Z" fill="white"/>
<path d="M26.8976 32.5605H25.2695V34.1886H26.8976V32.5605Z" fill="white"/>
<path d="M30.1535 32.5603H28.5254V34.1884H30.1535V32.5603Z" fill="white"/>
<path d="M31.7814 32.5605H30.1533V34.1886H31.7814V32.5605Z" fill="white"/>
<path d="M33.4093 32.5603H31.7812V34.1884H33.4093V32.5603Z" fill="white"/>
<path d="M35.0373 32.5603H33.4092V34.1884H35.0373V32.5603Z" fill="white"/>
<path d="M36.6652 32.5603H35.0371V34.1884H36.6652V32.5603Z" fill="white"/>
<path d="M38.2936 32.5603H36.6655V34.1884H38.2936V32.5603Z" fill="white"/>
<path d="M39.922 32.5605H38.2939V34.1886H39.922V32.5605Z" fill="white"/>
<path d="M41.5495 32.5603H39.9214V34.1884H41.5495V32.5603Z" fill="white"/>
<path d="M43.1784 32.5605H41.5503V34.1886H43.1784V32.5605Z" fill="white"/>
<path d="M44.8058 32.5603H43.1777V34.1884H44.8058V32.5603Z" fill="white"/>
<path d="M15.5006 34.1885H13.8726V35.8166H15.5006V34.1885Z" fill="white"/>
<path d="M17.1291 34.1885H15.501V35.8166H17.1291V34.1885Z" fill="white"/>
<path d="M18.757 34.1885H17.1289V35.8166H18.757V34.1885Z" fill="white"/>
<path d="M22.0133 34.1885H20.3853V35.8166H22.0133V34.1885Z" fill="white"/>
<path d="M23.6413 34.1885H22.0132V35.8166H23.6413V34.1885Z" fill="white"/>
<path d="M26.8976 34.1885H25.2695V35.8166H26.8976V34.1885Z" fill="white"/>
<path d="M28.5255 34.1885H26.8975V35.8166H28.5255V34.1885Z" fill="white"/>
<path d="M31.7814 34.1885H30.1533V35.8166H31.7814V34.1885Z" fill="white"/>
<path d="M35.0373 34.1882H33.4092V35.8163H35.0373V34.1882Z" fill="white"/>
<path d="M41.5495 34.1882H39.9214V35.8163H41.5495V34.1882Z" fill="white"/>
<path d="M43.1784 34.1885H41.5503V35.8166H43.1784V34.1885Z" fill="white"/>
<path d="M44.8058 34.1882H43.1777V35.8163H44.8058V34.1882Z" fill="white"/>
<path d="M46.4342 34.1882H44.8062V35.8163H46.4342V34.1882Z" fill="white"/>
<path d="M48.0622 34.1885H46.4341V35.8166H48.0622V34.1885Z" fill="white"/>
<path d="M15.5006 35.8157H13.8726V37.4437H15.5006V35.8157Z" fill="white"/>
<path d="M18.757 35.8157H17.1289V37.4437H18.757V35.8157Z" fill="white"/>
<path d="M22.0133 35.8157H20.3853V37.4437H22.0133V35.8157Z" fill="white"/>
<path d="M23.6413 35.8157H22.0132V37.4437H23.6413V35.8157Z" fill="white"/>
<path d="M28.5255 35.8157H26.8975V37.4437H28.5255V35.8157Z" fill="white"/>
<path d="M30.1535 35.8157H28.5254V37.4437H30.1535V35.8157Z" fill="white"/>
<path d="M33.4093 35.8157H31.7812V37.4437H33.4093V35.8157Z" fill="white"/>
<path d="M35.0373 35.8157H33.4092V37.4437H35.0373V35.8157Z" fill="white"/>
<path d="M38.2936 35.8157H36.6655V37.4437H38.2936V35.8157Z" fill="white"/>
<path d="M41.5499 35.8157H39.9219V37.4437H41.5499V35.8157Z" fill="white"/>
<path d="M43.1784 35.8157H41.5503V37.4437H43.1784V35.8157Z" fill="white"/>
<path d="M46.4342 35.8157H44.8062V37.4437H46.4342V35.8157Z" fill="white"/>
<path d="M15.5006 37.4448H13.8726V39.0729H15.5006V37.4448Z" fill="white"/>
<path d="M20.3849 37.4448H18.7568V39.0729H20.3849V37.4448Z" fill="white"/>
<path d="M26.8976 37.4448H25.2695V39.0729H26.8976V37.4448Z" fill="white"/>
<path d="M31.7814 37.4448H30.1533V39.0729H31.7814V37.4448Z" fill="white"/>
<path d="M35.0373 37.4448H33.4092V39.0729H35.0373V37.4448Z" fill="white"/>
<path d="M41.5495 37.4446H39.9214V39.0727H41.5495V37.4446Z" fill="white"/>
<path d="M43.1784 37.4448H41.5503V39.0729H43.1784V37.4448Z" fill="white"/>
<path d="M46.4342 37.4448H44.8062V39.0729H46.4342V37.4448Z" fill="white"/>
<path d="M48.0622 37.4448H46.4341V39.0729H48.0622V37.4448Z" fill="white"/>
<path d="M17.1291 39.0718H15.501V40.6999H17.1291V39.0718Z" fill="white"/>
<path d="M18.757 39.0718H17.1289V40.6999H18.757V39.0718Z" fill="white"/>
<path d="M20.3849 39.0718H18.7568V40.6999H20.3849V39.0718Z" fill="white"/>
<path d="M22.0133 39.0718H20.3853V40.6999H22.0133V39.0718Z" fill="white"/>
<path d="M25.2692 39.0718H23.6411V40.6999H25.2692V39.0718Z" fill="white"/>
<path d="M28.5255 39.0718H26.8975V40.6999H28.5255V39.0718Z" fill="white"/>
<path d="M30.1535 39.0718H28.5254V40.6999H30.1535V39.0718Z" fill="white"/>
<path d="M35.0373 39.0718H33.4092V40.6999H35.0373V39.0718Z" fill="white"/>
<path d="M36.6652 39.0718H35.0371V40.6999H36.6652V39.0718Z" fill="white"/>
<path d="M38.2936 39.0718H36.6655V40.6999H38.2936V39.0718Z" fill="white"/>
<path d="M39.922 39.0718H38.2939V40.6999H39.922V39.0718Z" fill="white"/>
<path d="M41.5495 39.0718H39.9214V40.6999H41.5495V39.0718Z" fill="white"/>
<path d="M44.8058 39.0718H43.1777V40.6999H44.8058V39.0718Z" fill="white"/>
<path d="M46.4342 39.0718H44.8062V40.6999H46.4342V39.0718Z" fill="white"/>
<path d="M48.0622 39.0718H46.4341V40.6999H48.0622V39.0718Z" fill="white"/>
<path d="M15.5006 40.6992H13.8726V42.3273H15.5006V40.6992Z" fill="white"/>
<path d="M20.3849 40.6992H18.7568V42.3273H20.3849V40.6992Z" fill="white"/>
<path d="M22.0133 40.6992H20.3853V42.3273H22.0133V40.6992Z" fill="white"/>
<path d="M25.2692 40.6992H23.6411V42.3273H25.2692V40.6992Z" fill="white"/>
<path d="M28.5255 40.6992H26.8975V42.3273H28.5255V40.6992Z" fill="white"/>
<path d="M30.1535 40.6992H28.5254V42.3273H30.1535V40.6992Z" fill="white"/>
<path d="M31.7814 40.6992H30.1533V42.3273H31.7814V40.6992Z" fill="white"/>
<path d="M33.4093 40.6992H31.7812V42.3273H33.4093V40.6992Z" fill="white"/>
<path d="M35.0373 40.6992H33.4092V42.3273H35.0373V40.6992Z" fill="white"/>
<path d="M36.6652 40.6992H35.0371V42.3273H36.6652V40.6992Z" fill="white"/>
<path d="M41.5495 40.6992H39.9214V42.3273H41.5495V40.6992Z" fill="white"/>
<path d="M43.1784 40.6992H41.5503V42.3273H43.1784V40.6992Z" fill="white"/>
<path d="M48.0622 40.6992H46.4341V42.3273H48.0622V40.6992Z" fill="white"/>
<path d="M15.5006 42.3274H13.8726V43.9555H15.5006V42.3274Z" fill="white"/>
<path d="M23.6413 42.3274H22.0132V43.9555H23.6413V42.3274Z" fill="white"/>
<path d="M31.7814 42.3274H30.1533V43.9555H31.7814V42.3274Z" fill="white"/>
<path d="M33.4093 42.3274H31.7812V43.9555H33.4093V42.3274Z" fill="white"/>
<path d="M36.6652 42.3274H35.0371V43.9555H36.6652V42.3274Z" fill="white"/>
<path d="M39.922 42.3274H38.2939V43.9555H39.922V42.3274Z" fill="white"/>
<path d="M44.8058 42.3274H43.1777V43.9555H44.8058V42.3274Z" fill="white"/>
<path d="M48.0622 42.3274H46.4341V43.9555H48.0622V42.3274Z" fill="white"/>
<path d="M18.757 43.9563H17.1289V45.5844H18.757V43.9563Z" fill="white"/>
<path d="M20.3849 43.9563H18.7568V45.5844H20.3849V43.9563Z" fill="white"/>
<path d="M22.0133 43.9563H20.3853V45.5844H22.0133V43.9563Z" fill="white"/>
<path d="M23.6413 43.9563H22.0132V45.5844H23.6413V43.9563Z" fill="white"/>
<path d="M25.2692 43.9563H23.6411V45.5844H25.2692V43.9563Z" fill="white"/>
<path d="M26.8976 43.9563H25.2695V45.5844H26.8976V43.9563Z" fill="white"/>
<path d="M28.5255 43.9563H26.8975V45.5844H28.5255V43.9563Z" fill="white"/>
<path d="M31.7814 43.9563H30.1533V45.5844H31.7814V43.9563Z" fill="white"/>
<path d="M35.0373 43.9563H33.4092V45.5844H35.0373V43.9563Z" fill="white"/>
<path d="M39.922 43.9563H38.2939V45.5844H39.922V43.9563Z" fill="white"/>
<path d="M43.1784 43.9563H41.5503V45.5844H43.1784V43.9563Z" fill="white"/>
<path d="M46.4342 43.9563H44.8062V45.5844H46.4342V43.9563Z" fill="white"/>
<path d="M15.5006 45.5835H13.8726V47.2116H15.5006V45.5835Z" fill="white"/>
<path d="M18.757 45.5835H17.1289V47.2116H18.757V45.5835Z" fill="white"/>
<path d="M23.6413 45.5835H22.0132V47.2116H23.6413V45.5835Z" fill="white"/>
<path d="M31.7814 45.5835H30.1533V47.2116H31.7814V45.5835Z" fill="white"/>
<path d="M33.4093 45.5835H31.7812V47.2116H33.4093V45.5835Z" fill="white"/>
<path d="M35.0373 45.5835H33.4092V47.2116H35.0373V45.5835Z" fill="white"/>
<path d="M43.1784 45.5835H41.5503V47.2116H43.1784V45.5835Z" fill="white"/>
<path d="M46.4342 45.5835H44.8062V47.2116H46.4342V45.5835Z" fill="white"/>
<path d="M10.5352 -0.000732422H2.55762H0.848145V1.70875V9.68631V11.3958H2.55762H10.5352H12.2447V9.68631V1.70875V-0.000732422H10.5352ZM10.5352 9.68631H2.55762V1.70875H10.5352V9.68631Z" fill="white"/>
<path d="M46.3526 -0.000732422H38.375H36.6655V1.70875V9.68631V11.3958H38.375H46.3526H48.0621V9.68631V1.70875V-0.000732422H46.3526ZM46.3526 9.68631H38.375V1.70875H46.3526V5.69753V9.68631Z" fill="white"/>
<path d="M10.5352 35.8167H2.55762H0.848145V37.5261V45.5037V47.2132H2.55762H10.5352H12.2447V45.5037V37.5261V35.8167H10.5352ZM10.5352 45.5037H2.55762V37.5261H10.5352V45.5037Z" fill="white"/>
<path d="M8.98823 3.25537H4.104V8.1396H8.98823V3.25537Z" fill="white"/>
<path d="M44.8056 3.25537H39.9214V8.1396H44.8056V3.25537Z" fill="white"/>
<path d="M8.98823 39.0718H4.104V43.956H8.98823V39.0718Z" fill="white"/>
</svg>
