<svg width="568" height="189" viewBox="0 0 568 189" fill="none" xmlns="http://www.w3.org/2000/svg">
<path d="M18.3365 9.63895C19.1827 10.1172 19.8356 10.7058 20.2955 11.4048C20.7737 12.0853 21.0129 12.8211 21.0129 13.612C21.0129 14.2926 20.8473 14.9456 20.5162 15.571C20.1851 16.178 19.7069 16.7114 19.0815 17.1713C17.7939 18.091 16.2948 18.5508 14.5842 18.5508C13.7381 18.5508 12.9287 18.4312 12.1562 18.1921C11.3836 17.953 10.6939 17.6127 10.0869 17.1713C9.03843 16.3987 8.40384 15.4514 8.18311 14.3294L9.36952 13.6672C9.4247 14.6789 9.92133 15.5066 10.8594 16.1504C11.3377 16.5183 11.8987 16.8034 12.5425 17.0057C13.1863 17.1896 13.8668 17.2816 14.5842 17.2816C16.0557 17.2816 17.2973 16.9045 18.309 16.1504C19.2838 15.433 19.7713 14.5869 19.7713 13.612C19.7713 13.0418 19.5873 12.5084 19.2194 12.0118C18.87 11.5151 18.3733 11.0921 17.7295 10.7426C17.1225 10.4299 16.0373 10.1816 14.4738 9.99763C14.3451 9.97924 13.876 9.90567 13.0667 9.77691C12.2758 9.64815 11.5952 9.44582 11.025 9.16991C10.1237 8.72846 9.4155 8.14905 8.90047 7.43169C8.38544 6.69593 8.12793 5.90499 8.12793 5.05887C8.12793 4.3783 8.29347 3.74371 8.62456 3.15511C8.97405 2.54811 9.46149 2.01468 10.0869 1.55484C10.6939 1.11338 11.3836 0.773095 12.1562 0.533974C12.9287 0.294853 13.7381 0.175293 14.5842 0.175293C16.2948 0.175293 17.7939 0.63514 19.0815 1.55484C20.1483 2.36417 20.7737 3.30226 20.9577 4.3691L19.7713 5.03128C19.7529 4.57143 19.6149 4.12998 19.3574 3.70692C19.1183 3.28386 18.7688 2.89759 18.309 2.54811C17.8123 2.18023 17.2421 1.90432 16.5983 1.72038C15.9545 1.51805 15.2832 1.41688 14.5842 1.41688C13.8852 1.41688 13.2046 1.51805 12.5425 1.72038C11.8987 1.90432 11.3377 2.18023 10.8594 2.54811C10.3812 2.89759 10.0133 3.29306 9.75579 3.73451C9.49828 4.15757 9.36952 4.59903 9.36952 5.05887C9.36952 5.62908 9.58105 6.19929 10.0041 6.76951C10.4272 7.32132 10.9514 7.75358 11.5768 8.06628C11.9631 8.25021 12.3861 8.38817 12.846 8.48014C13.3242 8.55371 13.9312 8.63649 14.667 8.72846C14.7957 8.74685 15.1176 8.79284 15.6326 8.86641C16.1477 8.93999 16.6443 9.04115 17.1225 9.16991C17.6008 9.29867 18.0055 9.45501 18.3365 9.63895Z" fill="white"/>
<path d="M58.6168 0.39602V1.6652H51.526V18.3301H50.2568V1.6652H43.1383V0.39602H58.6168Z" fill="white"/>
<path d="M81.8235 13.7776L79.699 18.3301H78.3195L86.7623 0.175293L94.736 18.3301H93.3841L91.3699 13.7776H81.8235ZM86.7071 3.23788L82.4029 12.536H90.8181L86.7071 3.23788Z" fill="white"/>
<path d="M128.543 18.3301L121.094 9.28027H123.301C124.662 9.28027 125.766 9.10553 126.612 8.75605C127.237 8.46174 127.78 8.02029 128.24 7.43169C128.7 6.82469 128.93 6.16251 128.93 5.44515C128.93 4.80136 128.737 4.19436 128.35 3.62415C127.964 3.03554 127.412 2.5573 126.695 2.18942C125.977 1.82155 125.15 1.63761 124.212 1.63761H119.19V18.3301H117.949V0.39602H124.212C125.058 0.39602 125.849 0.533974 126.584 0.809882C127.32 1.0674 127.964 1.44447 128.516 1.94111C129.049 2.41935 129.454 2.96197 129.73 3.56897C130.024 4.17597 130.171 4.80136 130.171 5.44515C130.171 6.45681 129.868 7.36731 129.261 8.17664C128.654 8.96758 127.936 9.53779 127.109 9.88727C126.539 10.1448 125.977 10.3103 125.426 10.3839C124.892 10.4391 124.322 10.4667 123.715 10.4667L130.199 18.3301H128.543Z" fill="white"/>
<path d="M194.408 18.3301H182.792V0.39602H194.408V1.6652H184.034V8.72846H192.118V9.99763H184.034V17.0333H194.408V18.3301Z" fill="white"/>
<path d="M232.002 0.39602L225.601 9.36305L232.002 18.3301H230.485L224.856 10.4115L219.228 18.3301H217.71L224.111 9.36305L217.71 0.39602H219.228L224.856 8.31459L230.485 0.39602H232.002Z" fill="white"/>
<path d="M256.612 18.3301H255.37L255.342 0.39602H261.743C262.792 0.39602 263.758 0.625944 264.64 1.08579C265.542 1.54564 266.25 2.16183 266.765 2.93438C267.298 3.70692 267.565 4.55304 267.565 5.47274C267.565 6.37404 267.298 7.22016 266.765 8.01109C266.25 8.78364 265.542 9.39983 264.64 9.85968C263.758 10.3195 262.792 10.5495 261.743 10.5495H256.612V18.3301ZM256.584 1.6652L256.612 9.25268H261.743C262.571 9.25268 263.334 9.08714 264.033 8.75605C264.732 8.40656 265.284 7.94671 265.689 7.3765C266.112 6.7879 266.323 6.15331 266.323 5.47274C266.323 4.77377 266.112 4.13918 265.689 3.56897C265.284 2.98036 264.732 2.52052 264.033 2.18942C263.334 1.83994 262.571 1.6652 261.743 1.6652H256.584Z" fill="white"/>
<path d="M302.377 18.3301H291.065V0.39602H292.307V17.0885H302.377V18.3301Z" fill="white"/>
<path d="M337.265 17.3092C335.867 18.1185 334.35 18.5232 332.713 18.5232C331.076 18.5232 329.558 18.1185 328.16 17.3092C326.762 16.4815 325.659 15.3687 324.849 13.9707C324.04 12.5544 323.635 11.0185 323.635 9.36305C323.635 7.70759 324.04 6.1809 324.849 4.78296C325.659 3.36663 326.762 2.2538 328.16 1.44447C329.558 0.616747 331.076 0.202885 332.713 0.202885C334.35 0.202885 335.867 0.616747 337.265 1.44447C338.663 2.2538 339.767 3.36663 340.576 4.78296C341.386 6.1809 341.79 7.70759 341.79 9.36305C341.79 11.0185 341.386 12.5544 340.576 13.9707C339.767 15.3687 338.663 16.4815 337.265 17.3092ZM336.631 2.54811C335.435 1.83074 334.129 1.47206 332.713 1.47206C331.297 1.47206 329.991 1.83074 328.795 2.54811C327.599 3.24707 326.643 4.20356 325.926 5.41755C325.227 6.61316 324.877 7.92832 324.877 9.36305C324.877 10.7978 325.227 12.1221 325.926 13.3361C326.643 14.5317 327.599 15.4882 328.795 16.2056C329.991 16.9045 331.297 17.254 332.713 17.254C334.129 17.254 335.435 16.9045 336.631 16.2056C337.826 15.4882 338.774 14.5317 339.473 13.3361C340.172 12.1221 340.521 10.7978 340.521 9.36305C340.521 7.92832 340.172 6.61316 339.473 5.41755C338.774 4.20356 337.826 3.24707 336.631 2.54811Z" fill="white"/>
<path d="M375.692 18.3301L368.242 9.28027H370.449C371.811 9.28027 372.914 9.10553 373.76 8.75605C374.386 8.46174 374.928 8.02029 375.388 7.43169C375.848 6.82469 376.078 6.16251 376.078 5.44515C376.078 4.80136 375.885 4.19436 375.498 3.62415C375.112 3.03554 374.56 2.5573 373.843 2.18942C373.126 1.82155 372.298 1.63761 371.36 1.63761H366.338V18.3301H365.097V0.39602H371.36C372.206 0.39602 372.997 0.533974 373.733 0.809882C374.468 1.0674 375.112 1.44447 375.664 1.94111C376.197 2.41935 376.602 2.96197 376.878 3.56897C377.172 4.17597 377.319 4.80136 377.319 5.44515C377.319 6.45681 377.016 7.36731 376.409 8.17664C375.802 8.96758 375.085 9.53779 374.257 9.88727C373.687 10.1448 373.126 10.3103 372.574 10.3839C372.04 10.4391 371.47 10.4667 370.863 10.4667L377.347 18.3301H375.692Z" fill="white"/>
<path d="M403.569 13.7776L401.445 18.3301H400.065L408.508 0.175293L416.482 18.3301H415.13L413.116 13.7776H403.569ZM408.453 3.23788L404.149 12.536H412.564L408.453 3.23788Z" fill="white"/>
<path d="M451.619 0.39602V1.6652H444.529V18.3301H443.259V1.6652H436.141V0.39602H451.619Z" fill="white"/>
<path d="M476.505 18.3301H475.263V0.39602H476.505V18.3301Z" fill="white"/>
<path d="M513.938 17.3092C512.54 18.1185 511.023 18.5232 509.386 18.5232C507.749 18.5232 506.231 18.1185 504.833 17.3092C503.435 16.4815 502.332 15.3687 501.523 13.9707C500.713 12.5544 500.309 11.0185 500.309 9.36305C500.309 7.70759 500.713 6.1809 501.523 4.78296C502.332 3.36663 503.435 2.2538 504.833 1.44447C506.231 0.616747 507.749 0.202885 509.386 0.202885C511.023 0.202885 512.54 0.616747 513.938 1.44447C515.336 2.2538 516.44 3.36663 517.249 4.78296C518.059 6.1809 518.463 7.70759 518.463 9.36305C518.463 11.0185 518.059 12.5544 517.249 13.9707C516.44 15.3687 515.336 16.4815 513.938 17.3092ZM513.304 2.54811C512.108 1.83074 510.802 1.47206 509.386 1.47206C507.97 1.47206 506.664 1.83074 505.468 2.54811C504.272 3.24707 503.316 4.20356 502.599 5.41755C501.9 6.61316 501.55 7.92832 501.55 9.36305C501.55 10.7978 501.9 12.1221 502.599 13.3361C503.316 14.5317 504.272 15.4882 505.468 16.2056C506.664 16.9045 507.97 17.254 509.386 17.254C510.802 17.254 512.108 16.9045 513.304 16.2056C514.499 15.4882 515.447 14.5317 516.146 13.3361C516.845 12.1221 517.194 10.7978 517.194 9.36305C517.194 7.92832 516.845 6.61316 516.146 5.41755C515.447 4.20356 514.499 3.24707 513.304 2.54811Z" fill="white"/>
<path d="M555.455 18.6336L543.039 3.7621V18.3301H541.797V0.175293L554.213 15.0192V0.39602H555.455V18.6336Z" fill="white"/>
<path d="M0.112793 105.1V97.9417H60.7853V113.509H8.24417V115.525H60.7853V122.683H0.112793V107.046H52.654V105.1H0.112793ZM0.112793 95.7178V75.9106H8.24417V79.038H34.0283V75.9106H42.1596V95.7178H0.112793ZM44.3836 84.7369V78.204H52.654V75.2156H60.7853V95.7873H52.654V93.7718H44.3836V87.2389H52.654V84.7369H44.3836ZM8.24417 85.8489V88.4899H34.0283V85.8489H8.24417Z" fill="white"/>
<path d="M167.605 108.923V101.695H194.015V98.3587H202.077V101.695H228.278V108.923H202.424C204.648 115.386 217.019 115.455 228.278 115.455V122.683C214.517 122.683 203.258 122.336 198.046 116.011C192.764 122.336 181.366 122.683 167.605 122.683V115.455C178.794 115.455 191.374 115.386 193.598 108.923H167.605ZM167.605 96.8297V75.9106H175.737V79.5245H204.996V75.9106H213.127V96.8297H167.605ZM220.146 96.9687V75.2156H228.278V96.9687H220.146ZM175.737 86.1964V89.6019H204.996V86.1964H175.737Z" fill="white"/>
<path d="M335.792 122.683V102.946H393.685V122.683H335.792ZM335.098 100.166V75.9106H379.229V82.374H343.229V84.8064H379.229V91.2698H343.229V93.7718H379.229V100.166H335.098ZM385.554 100.166V75.2156H393.685V83.9724H400.496V91.3393H393.685V100.166H385.554ZM343.924 110.174V115.525H385.554V110.174H343.924Z" fill="white"/>
<path d="M542.969 115.316V122.683C531.571 122.683 525.594 117.401 522.745 111.911C519.895 117.401 513.988 122.683 502.59 122.683V115.316C513.223 115.316 518.714 107.95 518.714 96.1347V75.9106H526.914V98.2892C527.54 108.853 532.961 115.316 542.969 115.316ZM552.351 123.378V75.2156H560.482V89.3239H567.988V96.5517H560.482V123.378H552.351Z" fill="white"/>
<path d="M19.8035 176.319H17.8213V171.391H19.8035V176.319ZM23.3497 176.319H21.3675V171.391H23.3497V176.319Z" fill="white"/>
<path d="M56.8658 178.902H53.9561V180.302H45.2634V172.755H47.4275V174.537H51.8102V172.755H53.9561V174.028H56.8658V172.482H59.0299V180.484H56.8658V178.902ZM56.8658 177.229V175.701H53.9561V177.229H56.8658ZM47.4275 178.538H51.8102V176.338H47.4275V178.538ZM48.1186 185.74V186.667H59.2663V188.376H45.9545V184.303L56.884 183.957V183.084H45.9545V181.43H59.0299V185.412L48.1186 185.74Z" fill="white"/>
<path d="M93.0543 172.482H95.2184V181.666H93.0543V172.482ZM88.1624 172.755H90.3265V180.848H81.452V172.755H83.616V174.792H88.1624V172.755ZM83.616 178.974H88.1624V176.683H83.616V178.974ZM89.9446 184.557L95.7276 186.94L94.6728 188.613L88.708 186.03L82.7431 188.613L81.6884 186.94L87.4895 184.557H82.1248V182.757H87.635V181.484H89.7991V182.757H95.2912V184.557H89.9446Z" fill="white"/>
<path d="M152.959 179.32L147.012 174.519L141.066 179.32L139.665 177.665L145.794 172.664H148.249L154.378 177.665L152.959 179.32ZM148.104 177.501V180.32H154.632V182.23H139.393V180.32H145.939V177.501H148.104ZM151.704 185.43H140.156V183.448H153.868V188.376H151.704V185.43Z" fill="white"/>
<path d="M188.42 188.376V172.482H190.493V188.376H188.42ZM182.946 178.793H184.765V172.519H186.802V188.104H184.765V180.848H182.946V184.448C182.946 186.758 182.146 187.831 180.237 187.831H178.436C176.563 187.831 175.727 186.758 175.727 184.448V175.956C175.727 173.646 176.563 172.573 178.436 172.573H180.237C182.146 172.573 182.946 173.646 182.946 175.956V178.793ZM180.946 184.412V175.974C180.946 175.01 180.746 174.592 179.909 174.592H178.818C178.018 174.592 177.782 175.01 177.782 175.974V184.412C177.782 185.394 178.018 185.812 178.818 185.812H179.909C180.746 185.812 180.946 185.394 180.946 184.412Z" fill="white"/>
<path d="M224.045 178.611V172.482H226.209V188.376H224.045V180.666H220.99V178.611H224.045ZM211.733 187.34L215.152 172.755H217.989L221.408 187.34L219.28 187.849L216.571 175.956L213.861 187.849L211.733 187.34Z" fill="white"/>
<path d="M275.13 176.81L272.165 181.229L270.42 180.175L273.693 175.301H270.42V173.428H274.057V172.155H276.184V173.428H279.822V175.301H276.53L279.803 180.175L278.076 181.229L275.13 176.81ZM284.823 181.211H282.659V178.265H279.876V176.247H282.659V172.482H284.823V181.211ZM274.639 182.157H281.967C283.95 182.157 284.968 183.139 284.968 184.867V185.758C284.968 187.485 283.95 188.467 281.967 188.467H274.639C272.657 188.467 271.62 187.485 271.62 185.758V184.867C271.62 183.157 272.657 182.157 274.639 182.157ZM282.804 185.558V185.03C282.804 184.412 282.422 184.066 281.567 184.066H275.039C274.184 184.066 273.802 184.412 273.802 185.03V185.558C273.802 186.176 274.184 186.521 275.039 186.521H281.567C282.422 186.521 282.804 186.176 282.804 185.558Z" fill="white"/>
<path d="M314.21 176.483L308.136 179.647L306.99 178.065L312.791 175.065H307.317V173.191H313.119V172.028H315.283V173.191H321.066V175.065H315.592L321.393 178.065L320.266 179.647L314.21 176.483ZM306.572 182.448V180.538H321.811V182.448H315.646V184.921H313.482V182.448H306.572ZM307.481 183.812H309.645V186.394H321.193V188.376H307.481V183.812Z" fill="white"/>
<path d="M354.49 177.974H346.27C344.47 177.974 343.433 177.356 343.433 175.828V174.792C343.433 173.264 344.47 172.664 346.27 172.664H354.49C356.29 172.664 357.327 173.264 357.327 174.792V175.828C357.327 177.356 356.29 177.974 354.49 177.974ZM346.67 176.283H354.09C354.817 176.283 355.163 176.083 355.163 175.556V175.101C355.163 174.574 354.817 174.374 354.09 174.374H346.67C345.961 174.374 345.615 174.574 345.615 175.101V175.556C345.615 176.083 345.961 176.283 346.67 176.283ZM358 180.775H342.76V179.047H358V180.775ZM357.418 188.376H343.524V184.521L355.09 184.194V183.448H343.524V181.866H357.236V185.558L345.688 185.903V186.722H357.418V188.376Z" fill="white"/>
<path d="M415.377 172.482V175.337H417.286V177.429H415.377V180.484H413.213V172.482H415.377ZM408.484 172.755H410.63V180.302H401.901V172.755H404.065V174.537H408.484V172.755ZM404.065 178.538H408.484V176.338H404.065V178.538ZM415.377 185.412L404.684 185.74V186.667H415.613V188.376H402.52V184.303L413.231 183.957V183.084H402.52V181.43H415.377V185.412Z" fill="white"/>
<path d="M452.002 184.321H449.838V180.684H446.783V178.756H449.838V176.738H446.783V174.81H449.838V172.482H452.002V184.321ZM442.982 182.212L440.909 181.52L443.727 174.774H438.217V172.755H446.128V174.665L442.982 182.212ZM441.327 183.103V186.358H452.238V188.376H439.145V183.103H441.327Z" fill="white"/>
<path d="M477.534 172.155H479.679V173.973H483.589V176.01H473.605V173.973H477.534V172.155ZM487.754 178.774H489.663V180.866H487.754V188.376H485.59V172.482H487.754V178.774ZM477.424 177.52H479.789C481.916 177.52 482.917 178.684 482.917 180.902V184.485C482.917 186.722 481.916 187.885 479.789 187.885H477.424C475.297 187.885 474.278 186.722 474.278 184.485V180.902C474.278 178.684 475.297 177.52 477.424 177.52ZM480.752 184.266V181.139C480.752 179.993 480.389 179.538 479.407 179.538H477.788C476.806 179.538 476.442 179.993 476.442 181.139V184.266C476.442 185.394 476.806 185.867 477.788 185.867H479.407C480.389 185.867 480.752 185.394 480.752 184.266Z" fill="white"/>
<path d="M523.942 178.774H525.852V180.866H523.942V188.376H521.778V172.482H523.942V178.774ZM512.649 174.774V185.667L520.014 185.249L520.142 187.285L510.467 187.813V172.755H519.251V174.774H512.649Z" fill="white"/>
<path d="M548.401 176.319H546.419V171.391H548.401V176.319ZM551.947 176.319H549.965V171.391H551.947V176.319Z" fill="white"/>
</svg>
